<svg xmlns="http://www.w3.org/2000/svg" viewBox="0 0 643 150"><style>.brk,.chk,.hyph{stroke-dashoffset:0}.brk{animation:draw .55s ease both}.brk:nth-of-type(2){animation-delay:.18s}.chk{animation:draw .5s cubic-bezier(.3,.9,.3,1) .5s both}.word{opacity:1;animation:rise .55s ease .95s both}.hyph{animation:draw .4s ease 1.3s both}@keyframes draw{from{stroke-dashoffset:100}to{stroke-dashoffset:0}}@keyframes rise{from{opacity:0;transform:translateY(9px)}to{opacity:1;transform:translateY(0)}}@media (prefers-reduced-motion:reduce){.brk,.chk,.hyph,.word{animation:none}}</style><rect width="643" height="150" fill="#0E1726"/><g transform="translate(26,20.0) scale(1.1000)"><path class="brk" pathLength="100" d="M37 27 H25 V73 H37" fill="none" stroke="#F7FAF9" stroke-width="8.5" stroke-linecap="round" stroke-linejoin="round"/><path class="brk" pathLength="100" d="M63 27 H75 V73 H63" fill="none" stroke="#F7FAF9" stroke-width="8.5" stroke-linecap="round" stroke-linejoin="round"/><path class="chk" pathLength="100" d="M38 52 L46 60 L62 40" fill="none" stroke="#2DD4BF" stroke-width="10" stroke-linecap="round" stroke-linejoin="round"/></g><g transform="translate(0,95.0)"><g class="word"><path d="M186.792 0.74Q179.17 0.74 174.582 -3.4779999999999998Q169.994 -7.696 169.994 -15.021999999999998V-25.677999999999997Q169.994 -33.004 174.582 -37.221999999999994Q179.17 -41.44 186.792 -41.44Q194.192 -41.44 198.632 -37.592Q203.072 -33.744 203.368 -27.084H195.45Q195.228 -30.561999999999998 192.897 -32.486Q190.566 -34.41 186.792 -34.41Q182.722 -34.41 180.35399999999998 -32.153Q177.986 -29.895999999999997 177.986 -25.752V-15.021999999999998Q177.986 -10.804 180.35399999999998 -8.547Q182.722 -6.29 186.792 -6.29Q190.64 -6.29 192.934 -8.214Q195.228 -10.138 195.45 -13.69H203.368Q203.072 -7.029999999999999 198.632 -3.1449999999999996Q194.192 0.74 186.792 0.74Z M230.6 0.6659999999999999Q223.052 0.6659999999999999 218.575 -3.6999999999999993Q214.098 -8.065999999999999 214.098 -15.613999999999999V-25.086Q214.098 -32.708 218.538 -37.037Q222.978 -41.366 230.6 -41.366Q238.222 -41.366 242.662 -37.037Q247.102 -32.708 247.102 -25.086V-15.613999999999999Q247.102 -8.065999999999999 242.625 -3.6999999999999993Q238.148 0.6659999999999999 230.6 0.6659999999999999ZM230.6 -6.364Q234.596 -6.364 236.853 -8.621Q239.11 -10.878 239.11 -15.096V-25.604Q239.11 -29.822 236.853 -32.079Q234.596 -34.336 230.6 -34.336Q226.604 -34.336 224.347 -32.079Q222.09 -29.822 222.09 -25.604V-15.096Q222.09 -10.878 224.347 -8.621Q226.604 -6.364 230.6 -6.364Z M259.016 0.0V-40.699999999999996H266.934V-32.93Q267.526 -36.925999999999995 270.375 -39.18299999999999Q273.224 -41.44 277.812 -41.44Q283.88 -41.44 287.506 -37.555Q291.132 -33.67 291.132 -27.084V0.0H283.14V-25.9Q283.14 -30.118 280.994 -32.375Q278.848 -34.632 275.148 -34.632Q271.374 -34.632 269.19100000000003 -32.263999999999996Q267.00800000000004 -29.895999999999997 267.00800000000004 -25.677999999999997V0.0Z M312.592 0.0V-27.898H301.048V-35.15H312.592V-42.994Q312.592 -48.099999999999994 315.84799999999996 -51.059999999999995Q319.104 -54.019999999999996 324.728 -54.019999999999996H336.642V-46.916H324.876Q320.584 -46.916 320.584 -42.919999999999995V-35.15H336.642V-27.898H320.584V0.0Z M363.79999999999995 0.6659999999999999Q356.25199999999995 0.6659999999999999 351.775 -3.6999999999999993Q347.29799999999994 -8.065999999999999 347.29799999999994 -15.613999999999999V-25.086Q347.29799999999994 -32.708 351.73799999999994 -37.037Q356.17799999999994 -41.366 363.79999999999995 -41.366Q371.42199999999997 -41.366 375.86199999999997 -37.037Q380.30199999999996 -32.708 380.30199999999996 -25.086V-15.613999999999999Q380.30199999999996 -8.065999999999999 375.82499999999993 -3.6999999999999993Q371.34799999999996 0.6659999999999999 363.79999999999995 0.6659999999999999ZM363.79999999999995 -6.364Q367.79599999999994 -6.364 370.05299999999994 -8.621Q372.30999999999995 -10.878 372.30999999999995 -15.096V-25.604Q372.30999999999995 -29.822 370.05299999999994 -32.079Q367.79599999999994 -34.336 363.79999999999995 -34.336Q359.804 -34.336 357.54699999999997 -32.079Q355.28999999999996 -29.822 355.28999999999996 -25.604V-15.096Q355.28999999999996 -10.878 357.54699999999997 -8.621Q359.804 -6.364 363.79999999999995 -6.364Z M393.69599999999997 0.0V-40.699999999999996H401.6139999999999V-32.708Q402.20599999999996 -36.778 405.092 -39.108999999999995Q407.97799999999995 -41.44 412.71399999999994 -41.44Q419.00399999999996 -41.44 422.48199999999997 -37.518Q425.9599999999999 -33.596 425.9599999999999 -26.491999999999997V-22.866H417.96799999999996V-26.27Q417.96799999999996 -34.484 409.90199999999993 -34.484Q405.90599999999995 -34.484 403.7969999999999 -32.153Q401.68799999999993 -29.822 401.68799999999993 -25.381999999999998V0.0Z M434.32199999999995 0.0V-40.699999999999996H441.12999999999994V-35.001999999999995H441.2779999999999Q441.5739999999999 -37.888 443.4239999999999 -39.664Q445.27399999999994 -41.44 448.0859999999999 -41.44Q450.74999999999994 -41.44 452.63699999999994 -39.775Q454.52399999999994 -38.11 455.2639999999999 -35.297999999999995Q455.7079999999999 -38.11 457.5579999999999 -39.775Q459.4079999999999 -41.44 462.2939999999999 -41.44Q466.0679999999999 -41.44 468.47299999999996 -38.516999999999996Q470.87799999999993 -35.594 470.87799999999993 -31.006V0.0H463.6259999999999V-30.636Q463.6259999999999 -32.856 462.5899999999999 -34.150999999999996Q461.5539999999999 -35.446 459.7039999999999 -35.446Q457.8539999999999 -35.446 456.8549999999999 -34.188Q455.85599999999994 -32.93 455.85599999999994 -30.709999999999997V0.0H449.34399999999994V-30.636Q449.34399999999994 -32.856 448.3449999999999 -34.150999999999996Q447.3459999999999 -35.446 445.4959999999999 -35.446Q443.6459999999999 -35.446 442.6099999999999 -34.188Q441.5739999999999 -32.93 441.5739999999999 -30.709999999999997V0.0Z" fill="#F7FAF9"/><path d="M550.2799999999999 0.74Q542.8059999999998 0.74 538.2919999999998 -3.626Q533.7779999999998 -7.992 533.7779999999998 -15.54V-25.16Q533.7779999999998 -32.708 538.2919999999998 -37.074Q542.8059999999998 -41.44 550.2799999999999 -41.44Q555.3119999999998 -41.44 559.0119999999997 -39.479Q562.7119999999998 -37.518 564.7469999999998 -33.966Q566.7819999999998 -30.413999999999998 566.7819999999998 -25.677999999999997V-18.352H541.4739999999998V-15.021999999999998Q541.4739999999998 -10.729999999999999 543.8419999999999 -8.361999999999998Q546.2099999999998 -5.994 550.2799999999999 -5.994Q553.6099999999998 -5.994 555.8299999999998 -7.215Q558.0499999999998 -8.436 558.4939999999998 -10.581999999999999H566.4119999999998Q565.5979999999998 -5.402 561.1949999999998 -2.331Q556.7919999999998 0.74 550.2799999999999 0.74ZM541.4739999999998 -25.677999999999997V-23.976H559.0859999999998V-25.752Q559.0859999999998 -30.266 556.7919999999998 -32.708Q554.4979999999998 -35.15 550.2799999999999 -35.15Q546.0619999999998 -35.15 543.7679999999998 -32.671Q541.4739999999998 -30.192 541.4739999999998 -25.677999999999997Z M591.6459999999998 0.74Q585.5779999999997 0.74 581.9519999999998 -3.404Q578.3259999999998 -7.548 578.3259999999998 -14.578V-26.048Q578.3259999999998 -33.152 581.9519999999998 -37.296Q585.5779999999997 -41.44 591.6459999999998 -41.44Q596.0119999999998 -41.44 599.0089999999998 -39.22Q602.0059999999997 -37.0 602.8939999999998 -33.004L602.6719999999998 -42.402V-54.019999999999996H610.6639999999998V0.0H602.7459999999998V-7.696Q601.9319999999998 -3.6999999999999997 599.0089999999998 -1.48Q596.0859999999998 0.74 591.6459999999998 0.74ZM594.4579999999997 -6.215999999999999Q598.3059999999998 -6.215999999999999 600.4889999999998 -8.547Q602.6719999999998 -10.878 602.6719999999998 -15.17V-25.604Q602.6719999999998 -29.822 600.4889999999998 -32.153Q598.3059999999998 -34.484 594.4579999999997 -34.484Q590.6099999999998 -34.484 588.4639999999997 -32.449Q586.3179999999998 -30.413999999999998 586.3179999999998 -25.974V-14.799999999999999Q586.3179999999998 -10.286 588.4639999999997 -8.251Q590.6099999999998 -6.215999999999999 594.4579999999997 -6.215999999999999Z" fill="#F7FAF9"/></g><path class="hyph" pathLength="100" d="M482.20 -20.47 L495.03 -7.65 L520.68 -39.71" fill="none" stroke="#2DD4BF" stroke-width="16.03" stroke-linecap="round" stroke-linejoin="round"/></g></svg>