<svg xmlns="http://www.w3.org/2000/svg" viewBox="0 0 407 262"><g transform="translate(137.5,26) scale(1.3200)"><g fill="none" stroke="#0E1726" stroke-width="8.5" stroke-linecap="round" stroke-linejoin="round"><path d="M37 27 H25 V73 H37"/><path d="M63 27 H75 V73 H63"/></g><path d="M38 52 L46 60 L62 40" fill="none" stroke="#14B8A6" stroke-width="10" stroke-linecap="round" stroke-linejoin="round"/></g><g transform="translate(26.0,220.9)"><path d="M17.864 0.5800000000000001Q11.89 0.5800000000000001 8.294 -2.726Q4.698 -6.032 4.698 -11.774000000000001V-20.126Q4.698 -25.868000000000002 8.294 -29.174000000000003Q11.89 -32.480000000000004 17.864 -32.480000000000004Q23.664 -32.480000000000004 27.144000000000002 -29.464000000000002Q30.624000000000002 -26.448 30.856 -21.228H24.650000000000002Q24.476000000000003 -23.954 22.649 -25.462000000000003Q20.822000000000003 -26.970000000000002 17.864 -26.970000000000002Q14.674000000000001 -26.970000000000002 12.818000000000001 -25.201Q10.962 -23.432000000000002 10.962 -20.184V-11.774000000000001Q10.962 -8.468 12.818000000000001 -6.699Q14.674000000000001 -4.930000000000001 17.864 -4.930000000000001Q20.880000000000003 -4.930000000000001 22.678000000000004 -6.438000000000001Q24.476000000000003 -7.946000000000001 24.650000000000002 -10.73H30.856Q30.624000000000002 -5.510000000000001 27.144000000000002 -2.4650000000000003Q23.664 0.5800000000000001 17.864 0.5800000000000001Z M52.2 0.522Q46.284000000000006 0.522 42.775000000000006 -2.9Q39.266000000000005 -6.322 39.266000000000005 -12.238000000000001V-19.662000000000003Q39.266000000000005 -25.636000000000003 42.74600000000001 -29.029000000000003Q46.226000000000006 -32.422000000000004 52.2 -32.422000000000004Q58.17400000000001 -32.422000000000004 61.65400000000001 -29.029000000000003Q65.13400000000001 -25.636000000000003 65.13400000000001 -19.662000000000003V-12.238000000000001Q65.13400000000001 -6.322 61.625000000000014 -2.9Q58.11600000000001 0.522 52.2 0.522ZM52.2 -4.988Q55.33200000000001 -4.988 57.101000000000006 -6.757Q58.870000000000005 -8.526 58.870000000000005 -11.832V-20.068Q58.870000000000005 -23.374000000000002 57.101000000000006 -25.143Q55.33200000000001 -26.912000000000003 52.2 -26.912000000000003Q49.068000000000005 -26.912000000000003 47.29900000000001 -25.143Q45.53 -23.374000000000002 45.53 -20.068V-11.832Q45.53 -8.526 47.29900000000001 -6.757Q49.068000000000005 -4.988 52.2 -4.988Z M74.47200000000001 0.0V-31.900000000000002H80.67800000000001V-25.810000000000002Q81.14200000000001 -28.942 83.375 -30.711000000000002Q85.608 -32.480000000000004 89.20400000000001 -32.480000000000004Q93.96000000000001 -32.480000000000004 96.802 -29.435000000000002Q99.644 -26.39 99.644 -21.228V0.0H93.38000000000001V-20.3Q93.38000000000001 -23.606 91.69800000000001 -25.375Q90.016 -27.144000000000002 87.11600000000001 -27.144000000000002Q84.15800000000002 -27.144000000000002 82.447 -25.288000000000004Q80.736 -23.432000000000002 80.736 -20.126V0.0Z M116.464 0.0V-21.866H107.41600000000001V-27.55H116.464V-33.698Q116.464 -37.7 119.016 -40.02Q121.56800000000001 -42.34 125.976 -42.34H135.31400000000002V-36.772H126.09200000000001Q122.72800000000001 -36.772 122.72800000000001 -33.64V-27.55H135.31400000000002V-21.866H122.72800000000001V0.0Z M156.60000000000002 0.522Q150.68400000000003 0.522 147.175 -2.9Q143.66600000000003 -6.322 143.66600000000003 -12.238000000000001V-19.662000000000003Q143.66600000000003 -25.636000000000003 147.14600000000002 -29.029000000000003Q150.626 -32.422000000000004 156.60000000000002 -32.422000000000004Q162.574 -32.422000000000004 166.05400000000003 -29.029000000000003Q169.53400000000002 -25.636000000000003 169.53400000000002 -19.662000000000003V-12.238000000000001Q169.53400000000002 -6.322 166.02500000000003 -2.9Q162.51600000000002 0.522 156.60000000000002 0.522ZM156.60000000000002 -4.988Q159.73200000000003 -4.988 161.50100000000003 -6.757Q163.27 -8.526 163.27 -11.832V-20.068Q163.27 -23.374000000000002 161.50100000000003 -25.143Q159.73200000000003 -26.912000000000003 156.60000000000002 -26.912000000000003Q153.46800000000002 -26.912000000000003 151.699 -25.143Q149.93 -23.374000000000002 149.93 -20.068V-11.832Q149.93 -8.526 151.699 -6.757Q153.46800000000002 -4.988 156.60000000000002 -4.988Z M180.03200000000004 0.0V-31.900000000000002H186.23800000000003V-25.636000000000003Q186.70200000000003 -28.826 188.96400000000003 -30.653000000000002Q191.22600000000003 -32.480000000000004 194.93800000000005 -32.480000000000004Q199.86800000000002 -32.480000000000004 202.59400000000002 -29.406000000000002Q205.32000000000002 -26.332 205.32000000000002 -20.764V-17.922H199.05600000000004V-20.59Q199.05600000000004 -27.028000000000002 192.73400000000004 -27.028000000000002Q189.60200000000003 -27.028000000000002 187.949 -25.201Q186.29600000000002 -23.374000000000002 186.29600000000002 -19.894000000000002V0.0Z M211.87400000000005 0.0V-31.900000000000002H217.21000000000004V-27.434H217.32600000000005Q217.55800000000005 -29.696 219.00800000000004 -31.088Q220.45800000000003 -32.480000000000004 222.66200000000003 -32.480000000000004Q224.75000000000003 -32.480000000000004 226.22900000000004 -31.175000000000004Q227.70800000000003 -29.87 228.28800000000004 -27.666Q228.63600000000005 -29.87 230.08600000000004 -31.175000000000004Q231.53600000000003 -32.480000000000004 233.79800000000003 -32.480000000000004Q236.75600000000003 -32.480000000000004 238.64100000000002 -30.189Q240.52600000000004 -27.898 240.52600000000004 -24.302V0.0H234.84200000000004V-24.012Q234.84200000000004 -25.752000000000002 234.03000000000003 -26.767000000000003Q233.21800000000005 -27.782 231.76800000000003 -27.782Q230.31800000000004 -27.782 229.53500000000003 -26.796Q228.75200000000004 -25.810000000000002 228.75200000000004 -24.07V0.0H223.64800000000005V-24.012Q223.64800000000005 -25.752000000000002 222.86500000000007 -26.767000000000003Q222.08200000000005 -27.782 220.63200000000003 -27.782Q219.18200000000004 -27.782 218.37000000000006 -26.796Q217.55800000000005 -25.810000000000002 217.55800000000005 -24.07V0.0Z" fill="#0E1726"/><path d="M249.40 -16.05 L259.45 -5.99 L279.56 -31.13" fill="none" stroke="#14B8A6" stroke-width="12.57" stroke-linecap="round" stroke-linejoin="round"/><path d="M302.76000000000005 0.5800000000000001Q296.90200000000004 0.5800000000000001 293.36400000000003 -2.842Q289.8260000000001 -6.264 289.8260000000001 -12.180000000000001V-19.720000000000002Q289.8260000000001 -25.636000000000003 293.36400000000003 -29.058000000000003Q296.90200000000004 -32.480000000000004 302.76000000000005 -32.480000000000004Q306.70400000000006 -32.480000000000004 309.60400000000004 -30.943000000000005Q312.5040000000001 -29.406000000000002 314.09900000000005 -26.622Q315.6940000000001 -23.838 315.6940000000001 -20.126V-14.384H295.85800000000006V-11.774000000000001Q295.85800000000006 -8.41 297.71400000000006 -6.554Q299.57000000000005 -4.698 302.76000000000005 -4.698Q305.37000000000006 -4.698 307.11000000000007 -5.655Q308.8500000000001 -6.612 309.1980000000001 -8.294H315.40400000000005Q314.7660000000001 -4.234 311.31500000000005 -1.827Q307.8640000000001 0.5800000000000001 302.76000000000005 0.5800000000000001ZM295.85800000000006 -20.126V-18.792H309.6620000000001V-20.184Q309.6620000000001 -23.722 307.8640000000001 -25.636000000000003Q306.0660000000001 -27.55 302.76000000000005 -27.55Q299.45400000000006 -27.55 297.65600000000006 -25.607Q295.85800000000006 -23.664 295.85800000000006 -20.126Z M335.1820000000001 0.5800000000000001Q330.4260000000001 0.5800000000000001 327.58400000000006 -2.668Q324.7420000000001 -5.916 324.7420000000001 -11.426V-20.416Q324.7420000000001 -25.984 327.58400000000006 -29.232000000000003Q330.4260000000001 -32.480000000000004 335.1820000000001 -32.480000000000004Q338.6040000000001 -32.480000000000004 340.9530000000001 -30.740000000000002Q343.3020000000001 -29.0 343.9980000000001 -25.868000000000002L343.82400000000007 -33.234V-42.34H350.0880000000001V0.0H343.88200000000006V-6.032Q343.2440000000001 -2.9000000000000004 340.9530000000001 -1.1600000000000001Q338.6620000000001 0.5800000000000001 335.1820000000001 0.5800000000000001ZM337.3860000000001 -4.872Q340.4020000000001 -4.872 342.11300000000006 -6.699Q343.82400000000007 -8.526 343.82400000000007 -11.89V-20.068Q343.82400000000007 -23.374000000000002 342.11300000000006 -25.201Q340.4020000000001 -27.028000000000002 337.3860000000001 -27.028000000000002Q334.37000000000006 -27.028000000000002 332.6880000000001 -25.433Q331.0060000000001 -23.838 331.0060000000001 -20.358V-11.600000000000001Q331.0060000000001 -8.062000000000001 332.6880000000001 -6.4670000000000005Q334.37000000000006 -4.872 337.3860000000001 -4.872Z" fill="#0E1726"/></g></svg>