<svg xmlns="http://www.w3.org/2000/svg" viewBox="0 0 518 84"><g transform="translate(0,62.2)"><path d="M38.64 0.8Q30.4 0.8 25.439999999999998 -3.7600000000000002Q20.48 -8.32 20.48 -16.240000000000002V-27.76Q20.48 -35.68 25.439999999999998 -40.24Q30.4 -44.800000000000004 38.64 -44.800000000000004Q46.64 -44.800000000000004 51.44 -40.64Q56.24 -36.480000000000004 56.56 -29.28H48.0Q47.76 -33.04 45.239999999999995 -35.120000000000005Q42.72 -37.2 38.64 -37.2Q34.24 -37.2 31.68 -34.760000000000005Q29.12 -32.32 29.12 -27.84V-16.240000000000002Q29.12 -11.68 31.68 -9.24Q34.24 -6.8 38.64 -6.8Q42.8 -6.8 45.28 -8.88Q47.76 -10.96 48.0 -14.8H56.56Q56.24 -7.6000000000000005 51.44 -3.4000000000000004Q46.64 0.8 38.64 0.8Z M86.0 0.72Q77.84 0.72 73.0 -4.0Q68.16 -8.72 68.16 -16.88V-27.12Q68.16 -35.36 72.96000000000001 -40.04Q77.76 -44.72 86.0 -44.72Q94.24000000000001 -44.72 99.04 -40.04Q103.84 -35.36 103.84 -27.12V-16.88Q103.84 -8.72 99.0 -4.0Q94.16 0.72 86.0 0.72ZM86.0 -6.88Q90.32 -6.88 92.75999999999999 -9.32Q95.2 -11.76 95.2 -16.32V-27.68Q95.2 -32.24 92.75999999999999 -34.68Q90.32 -37.12 86.0 -37.12Q81.68 -37.12 79.24000000000001 -34.68Q76.8 -32.24 76.8 -27.68V-16.32Q76.8 -11.76 79.24000000000001 -9.32Q81.68 -6.88 86.0 -6.88Z M116.72 0.0V-44.0H125.28V-35.6Q125.92 -39.92 129.0 -42.36Q132.08 -44.800000000000004 137.04 -44.800000000000004Q143.6 -44.800000000000004 147.51999999999998 -40.6Q151.44 -36.4 151.44 -29.28V0.0H142.8V-28.0Q142.8 -32.56 140.48000000000002 -35.0Q138.16 -37.44 134.16 -37.44Q130.08 -37.44 127.72 -34.879999999999995Q125.36 -32.32 125.36 -27.76V0.0Z M174.64 0.0V-30.16H162.16V-38.0H174.64V-46.480000000000004Q174.64 -52.0 178.16 -55.2Q181.68 -58.4 187.76 -58.4H200.64V-50.72H187.92000000000002Q183.28 -50.72 183.28 -46.4V-38.0H200.64V-30.16H183.28V0.0Z M230.0 0.72Q221.84 0.72 217.0 -4.0Q212.16 -8.72 212.16 -16.88V-27.12Q212.16 -35.36 216.95999999999998 -40.04Q221.76 -44.72 230.0 -44.72Q238.24 -44.72 243.04000000000002 -40.04Q247.84 -35.36 247.84 -27.12V-16.88Q247.84 -8.72 243.0 -4.0Q238.16 0.72 230.0 0.72ZM230.0 -6.88Q234.32 -6.88 236.76 -9.32Q239.2 -11.76 239.2 -16.32V-27.68Q239.2 -32.24 236.76 -34.68Q234.32 -37.12 230.0 -37.12Q225.68 -37.12 223.24 -34.68Q220.8 -32.24 220.8 -27.68V-16.32Q220.8 -11.76 223.24 -9.32Q225.68 -6.88 230.0 -6.88Z M262.32 0.0V-44.0H270.88V-35.36Q271.52 -39.76 274.64 -42.28Q277.76 -44.800000000000004 282.88 -44.800000000000004Q289.68 -44.800000000000004 293.44 -40.56Q297.2 -36.32 297.2 -28.64V-24.72H288.56V-28.400000000000002Q288.56 -37.28 279.84 -37.28Q275.52 -37.28 273.24 -34.760000000000005Q270.96 -32.24 270.96 -27.44V0.0Z M306.24 0.0V-44.0H313.6V-37.84H313.76Q314.08 -40.96 316.08 -42.88Q318.08 -44.800000000000004 321.12 -44.800000000000004Q324.0 -44.800000000000004 326.03999999999996 -43.0Q328.08 -41.2 328.88 -38.160000000000004Q329.36 -41.2 331.36 -43.0Q333.36 -44.800000000000004 336.48 -44.800000000000004Q340.56 -44.800000000000004 343.15999999999997 -41.64Q345.76 -38.480000000000004 345.76 -33.52V0.0H337.92V-33.12Q337.92 -35.52 336.8 -36.92Q335.68 -38.32 333.68 -38.32Q331.68 -38.32 330.6 -36.96Q329.52 -35.6 329.52 -33.2V0.0H322.48V-33.12Q322.48 -35.52 321.4 -36.92Q320.32 -38.32 318.32 -38.32Q316.32 -38.32 315.2 -36.96Q314.08 -35.6 314.08 -33.2V0.0Z" fill="#0E1726"/><path d="M358.00 -22.13 L371.87 -8.27 L399.60 -42.93" fill="none" stroke="#14B8A6" stroke-width="17.33" stroke-linecap="round" stroke-linejoin="round"/><path d="M431.6 0.8Q423.52000000000004 0.8 418.64000000000004 -3.9200000000000004Q413.76000000000005 -8.64 413.76000000000005 -16.8V-27.2Q413.76000000000005 -35.36 418.64000000000004 -40.08Q423.52000000000004 -44.800000000000004 431.6 -44.800000000000004Q437.04 -44.800000000000004 441.04 -42.68000000000001Q445.04 -40.56 447.24 -36.72Q449.44000000000005 -32.88 449.44000000000005 -27.76V-19.84H422.08000000000004V-16.240000000000002Q422.08000000000004 -11.6 424.64000000000004 -9.04Q427.20000000000005 -6.48 431.6 -6.48Q435.20000000000005 -6.48 437.6 -7.800000000000001Q440.0 -9.120000000000001 440.48 -11.44H449.04Q448.16 -5.84 443.40000000000003 -2.52Q438.64000000000004 0.8 431.6 0.8ZM422.08000000000004 -27.76V-25.92H441.12V-27.84Q441.12 -32.72 438.64 -35.36Q436.16 -38.0 431.6 -38.0Q427.04 -38.0 424.56000000000006 -35.32Q422.08000000000004 -32.64 422.08000000000004 -27.76Z M476.32000000000005 0.8Q469.76000000000005 0.8 465.84000000000003 -3.68Q461.92 -8.16 461.92 -15.76V-28.16Q461.92 -35.84 465.84000000000003 -40.32000000000001Q469.76000000000005 -44.800000000000004 476.32000000000005 -44.800000000000004Q481.04 -44.800000000000004 484.28000000000003 -42.400000000000006Q487.52000000000004 -40.0 488.48 -35.68L488.24 -45.84V-58.4H496.88V0.0H488.32000000000005V-8.32Q487.44 -4.0 484.28 -1.6Q481.12 0.8 476.32000000000005 0.8ZM479.36 -6.72Q483.52000000000004 -6.72 485.88 -9.24Q488.24 -11.76 488.24 -16.4V-27.68Q488.24 -32.24 485.88 -34.760000000000005Q483.52000000000004 -37.28 479.36 -37.28Q475.20000000000005 -37.28 472.88 -35.08Q470.56 -32.88 470.56 -28.080000000000002V-16.0Q470.56 -11.120000000000001 472.88 -8.92Q475.20000000000005 -6.72 479.36 -6.72Z" fill="#0E1726"/></g></svg>