<svg xmlns="http://www.w3.org/2000/svg" viewBox="0 0 1200 630" width="1200" height="630"><rect width="1200" height="630" fill="#0E1726"/><g opacity="0.06" fill="none" stroke="#F7FAF9" stroke-width="13.9" stroke-linecap="round" stroke-linejoin="round"><path d="M114 113 H54 V517 H114"/><path d="M1086 113 H1146 V517 H1086"/></g><g transform="translate(246.8,175.0) scale(1.5000)"><g fill="none" stroke="#F7FAF9" stroke-width="8.5" stroke-linecap="round" stroke-linejoin="round"><path d="M37 27 H25 V73 H37"/><path d="M63 27 H75 V73 H63"/></g><path d="M38 52 L46 60 L62 40" fill="none" stroke="#2DD4BF" stroke-width="10" stroke-linecap="round" stroke-linejoin="round"/></g><g transform="translate(426.8,275.8)"><path d="M26.488 0.8599999999999999Q17.63 0.8599999999999999 12.297999999999998 -4.042Q6.965999999999999 -8.943999999999999 6.965999999999999 -17.458V-29.842Q6.965999999999999 -38.355999999999995 12.297999999999998 -43.257999999999996Q17.63 -48.16 26.488 -48.16Q35.087999999999994 -48.16 40.24799999999999 -43.687999999999995Q45.407999999999994 -39.215999999999994 45.751999999999995 -31.476H36.55Q36.291999999999994 -35.518 33.583 -37.754Q30.874 -39.989999999999995 26.488 -39.989999999999995Q21.758 -39.989999999999995 19.006 -37.367Q16.253999999999998 -34.744 16.253999999999998 -29.927999999999997V-17.458Q16.253999999999998 -12.556 19.006 -9.933Q21.758 -7.31 26.488 -7.31Q30.959999999999997 -7.31 33.626 -9.546Q36.291999999999994 -11.781999999999998 36.55 -15.909999999999998H45.751999999999995Q45.407999999999994 -8.17 40.24799999999999 -3.6550000000000002Q35.087999999999994 0.8599999999999999 26.488 0.8599999999999999Z M77.39999999999999 0.7739999999999999Q68.62799999999999 0.7739999999999999 63.42499999999999 -4.3Q58.221999999999994 -9.373999999999999 58.221999999999994 -18.145999999999997V-29.153999999999996Q58.221999999999994 -38.012 63.382 -43.043Q68.542 -48.074 77.39999999999999 -48.074Q86.25799999999998 -48.074 91.41799999999998 -43.043Q96.57799999999999 -38.012 96.57799999999999 -29.153999999999996V-18.145999999999997Q96.57799999999999 -9.373999999999999 91.375 -4.3Q86.172 0.7739999999999999 77.39999999999999 0.7739999999999999ZM77.39999999999999 -7.395999999999999Q82.044 -7.395999999999999 84.667 -10.018999999999998Q87.28999999999999 -12.642 87.28999999999999 -17.543999999999997V-29.755999999999997Q87.28999999999999 -34.657999999999994 84.667 -37.28099999999999Q82.044 -39.903999999999996 77.39999999999999 -39.903999999999996Q72.756 -39.903999999999996 70.133 -37.28099999999999Q67.50999999999999 -34.657999999999994 67.50999999999999 -29.755999999999997V-17.543999999999997Q67.50999999999999 -12.642 70.133 -10.018999999999998Q72.756 -7.395999999999999 77.39999999999999 -7.395999999999999Z M110.42399999999999 0.0V-47.3H119.62599999999999V-38.269999999999996Q120.314 -42.913999999999994 123.62499999999999 -45.53699999999999Q126.93599999999998 -48.16 132.26799999999997 -48.16Q139.32 -48.16 143.534 -43.644999999999996Q147.748 -39.129999999999995 147.748 -31.476V0.0H138.45999999999998V-30.099999999999998Q138.45999999999998 -35.001999999999995 135.96599999999998 -37.625Q133.47199999999998 -40.248 129.172 -40.248Q124.78599999999999 -40.248 122.249 -37.495999999999995Q119.71199999999999 -34.744 119.71199999999999 -29.842V0.0Z M172.688 0.0V-32.422H159.272V-40.849999999999994H172.688V-49.965999999999994Q172.688 -55.9 176.47199999999998 -59.339999999999996Q180.25599999999997 -62.779999999999994 186.79199999999997 -62.779999999999994H200.63799999999998V-54.523999999999994H186.96399999999997Q181.97599999999997 -54.523999999999994 181.97599999999997 -49.879999999999995V-40.849999999999994H200.63799999999998V-32.422H181.97599999999997V0.0Z M232.2 0.7739999999999999Q223.42799999999997 0.7739999999999999 218.22499999999997 -4.3Q213.022 -9.373999999999999 213.022 -18.145999999999997V-29.153999999999996Q213.022 -38.012 218.182 -43.043Q223.34199999999998 -48.074 232.2 -48.074Q241.05799999999996 -48.074 246.21799999999996 -43.043Q251.378 -38.012 251.378 -29.153999999999996V-18.145999999999997Q251.378 -9.373999999999999 246.17499999999998 -4.3Q240.97199999999998 0.7739999999999999 232.2 0.7739999999999999ZM232.2 -7.395999999999999Q236.84399999999997 -7.395999999999999 239.46699999999998 -10.018999999999998Q242.08999999999997 -12.642 242.08999999999997 -17.543999999999997V-29.755999999999997Q242.08999999999997 -34.657999999999994 239.46699999999998 -37.28099999999999Q236.84399999999997 -39.903999999999996 232.2 -39.903999999999996Q227.55599999999998 -39.903999999999996 224.933 -37.28099999999999Q222.30999999999997 -34.657999999999994 222.30999999999997 -29.755999999999997V-17.543999999999997Q222.30999999999997 -12.642 224.933 -10.018999999999998Q227.55599999999998 -7.395999999999999 232.2 -7.395999999999999Z M266.944 0.0V-47.3H276.146V-38.012Q276.834 -42.742 280.188 -45.45099999999999Q283.542 -48.16 289.046 -48.16Q296.356 -48.16 300.398 -43.602Q304.44 -39.044 304.44 -30.787999999999997V-26.573999999999998H295.152V-30.529999999999998Q295.152 -40.07599999999999 285.778 -40.07599999999999Q281.134 -40.07599999999999 278.683 -37.36699999999999Q276.23199999999997 -34.657999999999994 276.23199999999997 -29.497999999999998V0.0Z M314.158 0.0V-47.3H322.07000000000005V-40.678H322.242Q322.586 -44.032 324.736 -46.096Q326.886 -48.16 330.154 -48.16Q333.25 -48.16 335.443 -46.224999999999994Q337.636 -44.29 338.49600000000004 -41.022Q339.012 -44.29 341.16200000000003 -46.224999999999994Q343.312 -48.16 346.666 -48.16Q351.052 -48.16 353.847 -44.763Q356.642 -41.366 356.642 -36.034V0.0H348.214V-35.604Q348.214 -38.184 347.01 -39.68899999999999Q345.80600000000004 -41.193999999999996 343.656 -41.193999999999996Q341.50600000000003 -41.193999999999996 340.345 -39.732Q339.184 -38.269999999999996 339.184 -35.69V0.0H331.61600000000004V-35.604Q331.61600000000004 -38.184 330.45500000000004 -39.68899999999999Q329.29400000000004 -41.193999999999996 327.144 -41.193999999999996Q324.994 -41.193999999999996 323.79 -39.732Q322.586 -38.269999999999996 322.586 -35.69V0.0Z" fill="#F7FAF9"/><path d="M369.80 -23.79 L384.71 -8.89 L414.52 -46.15" fill="none" stroke="#2DD4BF" stroke-width="18.63" stroke-linecap="round" stroke-linejoin="round"/><path d="M448.92000000000013 0.8599999999999999Q440.2340000000001 0.8599999999999999 434.9880000000001 -4.2139999999999995Q429.74200000000013 -9.287999999999998 429.74200000000013 -18.06V-29.24Q429.74200000000013 -38.012 434.9880000000001 -43.086Q440.2340000000001 -48.16 448.92000000000013 -48.16Q454.76800000000014 -48.16 459.0680000000001 -45.881Q463.3680000000001 -43.602 465.7330000000001 -39.474Q468.0980000000001 -35.346 468.0980000000001 -29.842V-21.328H438.6860000000001V-17.458Q438.6860000000001 -12.469999999999999 441.4380000000001 -9.718Q444.1900000000001 -6.965999999999999 448.92000000000013 -6.965999999999999Q452.79000000000013 -6.965999999999999 455.3700000000001 -8.384999999999998Q457.9500000000001 -9.803999999999998 458.4660000000001 -12.297999999999998H467.6680000000001Q466.7220000000001 -6.278 461.60500000000013 -2.7089999999999996Q456.4880000000001 0.8599999999999999 448.92000000000013 0.8599999999999999ZM438.6860000000001 -29.842V-27.863999999999997H459.1540000000001V-29.927999999999997Q459.1540000000001 -35.174 456.4880000000001 -38.012Q453.8220000000001 -40.849999999999994 448.92000000000013 -40.849999999999994Q444.01800000000014 -40.849999999999994 441.3520000000001 -37.968999999999994Q438.6860000000001 -35.087999999999994 438.6860000000001 -29.842Z M496.99400000000014 0.8599999999999999Q489.9420000000001 0.8599999999999999 485.7280000000001 -3.9559999999999995Q481.5140000000001 -8.771999999999998 481.5140000000001 -16.942V-30.272Q481.5140000000001 -38.528 485.7280000000001 -43.343999999999994Q489.9420000000001 -48.16 496.99400000000014 -48.16Q502.06800000000015 -48.16 505.55100000000016 -45.58Q509.03400000000016 -43.0 510.06600000000014 -38.355999999999995L509.8080000000001 -49.278V-62.779999999999994H519.0960000000001V0.0H509.8940000000001V-8.943999999999999Q508.94800000000015 -4.3 505.55100000000016 -1.72Q502.1540000000001 0.8599999999999999 496.99400000000014 0.8599999999999999ZM500.2620000000001 -7.223999999999999Q504.73400000000015 -7.223999999999999 507.27100000000013 -9.933Q509.8080000000001 -12.642 509.8080000000001 -17.63V-29.755999999999997Q509.8080000000001 -34.657999999999994 507.27100000000013 -37.36699999999999Q504.73400000000015 -40.07599999999999 500.2620000000001 -40.07599999999999Q495.79000000000013 -40.07599999999999 493.29600000000016 -37.711Q490.80200000000013 -35.346 490.80200000000013 -30.185999999999996V-17.2Q490.80200000000013 -11.953999999999999 493.29600000000016 -9.588999999999999Q495.79000000000013 -7.223999999999999 500.2620000000001 -7.223999999999999Z" fill="#F7FAF9"/></g><g transform="translate(156.0,386)"><path d="M1.72 0.0 9.16 -29.2H14.84L22.32 0.0H17.92L16.16 -7.4H7.88L6.12 0.0ZM8.68 -11.0H15.32L13.32 -19.400000000000002Q12.8 -21.64 12.46 -23.28Q12.120000000000001 -24.92 12.0 -25.560000000000002Q11.88 -24.92 11.56 -23.28Q11.24 -21.64 10.68 -19.44Z M39.4 0.0Q36.28 0.0 34.42 -1.82Q32.56 -3.64 32.56 -6.68V-25.28H25.16V-29.2H36.88V-6.76Q36.88 -5.44 37.6 -4.68Q38.32 -3.92 39.56 -3.92H46.2V0.0Z M63.4 0.0Q60.28 0.0 58.42 -1.82Q56.56 -3.64 56.56 -6.68V-25.28H49.16V-29.2H60.88V-6.76Q60.88 -5.44 61.6 -4.68Q62.32 -3.92 63.56 -3.92H70.2V0.0Z M102.84 7.2 106.04 -1.28 97.8 -22.0H102.4L107.08 -9.6Q107.44 -8.72 107.75999999999999 -7.680000000000001Q108.08 -6.640000000000001 108.2 -5.84Q108.36 -6.640000000000001 108.66 -7.680000000000001Q108.96000000000001 -8.72 109.28 -9.6L113.64 -22.0H118.2L107.36 7.2Z M132.0 0.36Q127.92 0.36 125.5 -2.0Q123.08 -4.36 123.08 -8.44V-13.56Q123.08 -17.68 125.47999999999999 -20.02Q127.88 -22.36 132.0 -22.36Q136.12 -22.36 138.52 -20.02Q140.92000000000002 -17.68 140.92000000000002 -13.56V-8.44Q140.92000000000002 -4.36 138.5 -2.0Q136.08 0.36 132.0 0.36ZM132.0 -3.44Q134.16 -3.44 135.38 -4.66Q136.6 -5.88 136.6 -8.16V-13.84Q136.6 -16.12 135.38 -17.34Q134.16 -18.56 132.0 -18.56Q129.84 -18.56 128.62 -17.34Q127.4 -16.12 127.4 -13.84V-8.16Q127.4 -5.88 128.62 -4.66Q129.84 -3.44 132.0 -3.44Z M155.96 0.4Q151.96 0.4 149.62 -1.9000000000000001Q147.28 -4.2 147.28 -8.16V-22.0H151.6V-8.2Q151.6 -5.96 152.76 -4.66Q153.92 -3.36 155.96 -3.36Q158.04 -3.36 159.22 -4.66Q160.4 -5.96 160.4 -8.2V-22.0H164.72V-8.16Q164.72 -4.2 162.34 -1.9000000000000001Q159.96 0.4 155.96 0.4Z M172.16 0.0V-22.0H176.44V-17.68Q176.76 -19.88 178.32 -21.14Q179.88 -22.400000000000002 182.44 -22.400000000000002Q185.84 -22.400000000000002 187.72 -20.28Q189.6 -18.16 189.6 -14.32V-12.36H185.28V-14.200000000000001Q185.28 -18.64 180.92 -18.64Q178.76 -18.64 177.62 -17.380000000000003Q176.48 -16.12 176.48 -13.72V0.0Z" fill="#F7FAF9"/><path d="M228.32 0.4Q224.2 0.4 221.72 -1.8800000000000001Q219.24 -4.16 219.24 -8.120000000000001V-13.88Q219.24 -17.84 221.72 -20.12Q224.2 -22.400000000000002 228.32 -22.400000000000002Q232.32 -22.400000000000002 234.72 -20.32Q237.12 -18.240000000000002 237.28 -14.64H233.0Q232.88 -16.52 231.62 -17.560000000000002Q230.36 -18.6 228.32 -18.6Q226.12 -18.6 224.84 -17.380000000000003Q223.56 -16.16 223.56 -13.92V-8.120000000000001Q223.56 -5.84 224.84 -4.62Q226.12 -3.4 228.32 -3.4Q230.4 -3.4 231.64 -4.44Q232.88 -5.48 233.0 -7.4H237.28Q237.12 -3.8000000000000003 234.72 -1.7000000000000002Q232.32 0.4 228.32 0.4Z M252.0 0.36Q247.92 0.36 245.5 -2.0Q243.08 -4.36 243.08 -8.44V-13.56Q243.08 -17.68 245.48000000000002 -20.02Q247.88 -22.36 252.0 -22.36Q256.12 -22.36 258.52 -20.02Q260.92 -17.68 260.92 -13.56V-8.44Q260.92 -4.36 258.5 -2.0Q256.08 0.36 252.0 0.36ZM252.0 -3.44Q254.16 -3.44 255.38 -4.66Q256.6 -5.88 256.6 -8.16V-13.84Q256.6 -16.12 255.38 -17.34Q254.16 -18.56 252.0 -18.56Q249.84 -18.56 248.62 -17.34Q247.4 -16.12 247.4 -13.84V-8.16Q247.4 -5.88 248.62 -4.66Q249.84 -3.44 252.0 -3.44Z M267.36 0.0V-22.0H271.64V-17.8Q271.96 -19.96 273.5 -21.18Q275.04 -22.400000000000002 277.52 -22.400000000000002Q280.8 -22.400000000000002 282.76 -20.3Q284.72 -18.2 284.72 -14.64V0.0H280.4V-14.0Q280.4 -16.28 279.24 -17.5Q278.08 -18.72 276.08 -18.72Q274.04 -18.72 272.86 -17.439999999999998Q271.68 -16.16 271.68 -13.88V0.0Z M296.32 0.0V-15.08H290.08V-19.0H296.32V-23.240000000000002Q296.32 -26.0 298.08 -27.6Q299.84 -29.2 302.88 -29.2H309.32V-25.36H302.96Q300.64 -25.36 300.64 -23.2V-19.0H309.32V-15.08H300.64V0.0Z M324.0 0.36Q319.92 0.36 317.5 -2.0Q315.08 -4.36 315.08 -8.44V-13.56Q315.08 -17.68 317.48 -20.02Q319.88 -22.36 324.0 -22.36Q328.12 -22.36 330.52 -20.02Q332.92 -17.68 332.92 -13.56V-8.44Q332.92 -4.36 330.5 -2.0Q328.08 0.36 324.0 0.36ZM324.0 -3.44Q326.16 -3.44 327.38 -4.66Q328.6 -5.88 328.6 -8.16V-13.84Q328.6 -16.12 327.38 -17.34Q326.16 -18.56 324.0 -18.56Q321.84 -18.56 320.62 -17.34Q319.4 -16.12 319.4 -13.84V-8.16Q319.4 -5.88 320.62 -4.66Q321.84 -3.44 324.0 -3.44Z M340.16 0.0V-22.0H344.44V-17.68Q344.76 -19.88 346.32 -21.14Q347.88 -22.400000000000002 350.44 -22.400000000000002Q353.84 -22.400000000000002 355.72 -20.28Q357.6 -18.16 357.6 -14.32V-12.36H353.28V-14.200000000000001Q353.28 -18.64 348.92 -18.64Q346.76 -18.64 345.62 -17.380000000000003Q344.48 -16.12 344.48 -13.72V0.0Z M362.12 0.0V-22.0H365.8V-18.92H365.88Q366.04 -20.48 367.04 -21.44Q368.04 -22.400000000000002 369.56 -22.400000000000002Q371.0 -22.400000000000002 372.02 -21.5Q373.04 -20.6 373.44 -19.080000000000002Q373.68 -20.6 374.68 -21.5Q375.68 -22.400000000000002 377.24 -22.400000000000002Q379.28 -22.400000000000002 380.58 -20.82Q381.88 -19.240000000000002 381.88 -16.76V0.0H377.96V-16.56Q377.96 -17.76 377.4 -18.46Q376.84 -19.16 375.84 -19.16Q374.84 -19.16 374.29999999999995 -18.48Q373.76 -17.8 373.76 -16.6V0.0H370.24V-16.56Q370.24 -17.76 369.70000000000005 -18.46Q369.16 -19.16 368.16 -19.16Q367.16 -19.16 366.6 -18.48Q366.04 -17.8 366.04 -16.6V0.0Z M393.8 0.4Q390.44 0.4 388.46000000000004 -1.5Q386.48 -3.4 386.48 -6.48Q386.48 -9.6 388.6 -11.5Q390.72 -13.4 394.24 -13.4H400.32V-15.0Q400.32 -18.8 396.04 -18.8Q394.12 -18.8 392.96000000000004 -18.08Q391.8 -17.36 391.72 -16.080000000000002H387.48Q387.68 -18.84 389.96000000000004 -20.62Q392.24 -22.400000000000002 396.08 -22.400000000000002Q400.16 -22.400000000000002 402.4 -20.46Q404.64 -18.52 404.64 -15.040000000000001V0.0H400.4V-4.12H400.36Q400.08 -2.0 398.36 -0.8Q396.64 0.4 393.8 0.4ZM395.04 -3.16Q397.48 -3.16 398.9 -4.34Q400.32 -5.5200000000000005 400.32 -7.5200000000000005V-10.36H394.56Q392.84 -10.36 391.82 -9.36Q390.8 -8.36 390.8 -6.8Q390.8 -5.12 391.92 -4.140000000000001Q393.04 -3.16 395.04 -3.16Z M411.36 0.0V-22.0H415.64V-17.8Q415.96 -19.96 417.5 -21.18Q419.04 -22.400000000000002 421.52 -22.400000000000002Q424.8 -22.400000000000002 426.76 -20.3Q428.72 -18.2 428.72 -14.64V0.0H424.4V-14.0Q424.4 -16.28 423.24 -17.5Q422.08 -18.72 420.08 -18.72Q418.04 -18.72 416.86 -17.439999999999998Q415.68 -16.16 415.68 -13.88V0.0Z M444.32 0.4Q440.2 0.4 437.72 -1.8800000000000001Q435.24 -4.16 435.24 -8.120000000000001V-13.88Q435.24 -17.84 437.72 -20.12Q440.2 -22.400000000000002 444.32 -22.400000000000002Q448.32 -22.400000000000002 450.72 -20.32Q453.12 -18.240000000000002 453.28 -14.64H449.0Q448.88 -16.52 447.62 -17.560000000000002Q446.36 -18.6 444.32 -18.6Q442.12 -18.6 440.84000000000003 -17.380000000000003Q439.56 -16.16 439.56 -13.92V-8.120000000000001Q439.56 -5.84 440.84000000000003 -4.62Q442.12 -3.4 444.32 -3.4Q446.4 -3.4 447.64 -4.44Q448.88 -5.48 449.0 -7.4H453.28Q453.12 -3.8000000000000003 450.72 -1.7000000000000002Q448.32 0.4 444.32 0.4Z M468.0 0.4Q463.96 0.4 461.52 -1.9600000000000002Q459.08 -4.32 459.08 -8.4V-13.6Q459.08 -17.68 461.52 -20.04Q463.96 -22.400000000000002 468.0 -22.400000000000002Q470.72 -22.400000000000002 472.72 -21.340000000000003Q474.72 -20.28 475.82000000000005 -18.36Q476.92 -16.44 476.92 -13.88V-9.92H463.24V-8.120000000000001Q463.24 -5.8 464.52 -4.52Q465.8 -3.24 468.0 -3.24Q469.8 -3.24 471.0 -3.9000000000000004Q472.2 -4.5600000000000005 472.44 -5.72H476.72Q476.28 -2.92 473.9 -1.26Q471.52 0.4 468.0 0.4ZM463.24 -13.88V-12.96H472.76V-13.92Q472.76 -16.36 471.52 -17.68Q470.28 -19.0 468.0 -19.0Q465.72 -19.0 464.48 -17.66Q463.24 -16.32 463.24 -13.88Z" fill="#2DD4BF"/><path d="M513.8 0.4Q510.44 0.4 508.46000000000004 -1.5Q506.48 -3.4 506.48 -6.48Q506.48 -9.6 508.6 -11.5Q510.72 -13.4 514.24 -13.4H520.32V-15.0Q520.32 -18.8 516.04 -18.8Q514.12 -18.8 512.96 -18.08Q511.8 -17.36 511.72 -16.080000000000002H507.48Q507.68 -18.84 509.96000000000004 -20.62Q512.24 -22.400000000000002 516.08 -22.400000000000002Q520.16 -22.400000000000002 522.4 -20.46Q524.64 -18.52 524.64 -15.040000000000001V0.0H520.4V-4.12H520.36Q520.08 -2.0 518.36 -0.8Q516.64 0.4 513.8 0.4ZM515.04 -3.16Q517.48 -3.16 518.9000000000001 -4.34Q520.32 -5.5200000000000005 520.32 -7.5200000000000005V-10.36H514.56Q512.84 -10.36 511.82000000000005 -9.36Q510.8 -8.36 510.8 -6.8Q510.8 -5.12 511.91999999999996 -4.140000000000001Q513.04 -3.16 515.04 -3.16Z M532.16 0.0V-22.0H536.44V-17.68Q536.76 -19.88 538.3199999999999 -21.14Q539.88 -22.400000000000002 542.44 -22.400000000000002Q545.84 -22.400000000000002 547.72 -20.28Q549.6 -18.16 549.6 -14.32V-12.36H545.28V-14.200000000000001Q545.28 -18.64 540.92 -18.64Q538.76 -18.64 537.62 -17.380000000000003Q536.48 -16.12 536.48 -13.72V0.0Z M564.0 0.4Q559.96 0.4 557.52 -1.9600000000000002Q555.08 -4.32 555.08 -8.4V-13.6Q555.08 -17.68 557.52 -20.04Q559.96 -22.400000000000002 564.0 -22.400000000000002Q566.72 -22.400000000000002 568.72 -21.340000000000003Q570.72 -20.28 571.8199999999999 -18.36Q572.92 -16.44 572.92 -13.88V-9.92H559.24V-8.120000000000001Q559.24 -5.8 560.52 -4.52Q561.8 -3.24 564.0 -3.24Q565.8 -3.24 567.0 -3.9000000000000004Q568.2 -4.5600000000000005 568.44 -5.72H572.72Q572.28 -2.92 569.9 -1.26Q567.52 0.4 564.0 0.4ZM559.24 -13.88V-12.96H568.76V-13.92Q568.76 -16.36 567.52 -17.68Q566.28 -19.0 564.0 -19.0Q561.72 -19.0 560.48 -17.66Q559.24 -16.32 559.24 -13.88Z M613.64 0.4Q611.24 0.4 609.6600000000001 -0.8Q608.08 -2.0 607.64 -4.16V0.0H603.36V-29.2H607.68V-22.92L607.56 -17.84Q608.04 -19.96 609.66 -21.18Q611.28 -22.400000000000002 613.64 -22.400000000000002Q616.92 -22.400000000000002 618.88 -20.160000000000004Q620.84 -17.92 620.84 -14.08V-7.88Q620.84 -4.08 618.88 -1.84Q616.92 0.4 613.64 0.4ZM612.12 -3.36Q614.2 -3.36 615.36 -4.46Q616.52 -5.5600000000000005 616.52 -8.0V-14.040000000000001Q616.52 -16.44 615.36 -17.54Q614.2 -18.64 612.12 -18.64Q610.04 -18.64 608.8599999999999 -17.380000000000003Q607.68 -16.12 607.68 -13.84V-8.2Q607.68 -5.88 608.8599999999999 -4.62Q610.04 -3.36 612.12 -3.36Z M636.0 0.4Q631.96 0.4 629.52 -1.9600000000000002Q627.08 -4.32 627.08 -8.4V-13.6Q627.08 -17.68 629.52 -20.04Q631.96 -22.400000000000002 636.0 -22.400000000000002Q638.72 -22.400000000000002 640.72 -21.340000000000003Q642.72 -20.28 643.8199999999999 -18.36Q644.92 -16.44 644.92 -13.88V-9.92H631.24V-8.120000000000001Q631.24 -5.8 632.52 -4.52Q633.8 -3.24 636.0 -3.24Q637.8 -3.24 639.0 -3.9000000000000004Q640.2 -4.5600000000000005 640.44 -5.72H644.72Q644.28 -2.92 641.9 -1.26Q639.52 0.4 636.0 0.4ZM631.24 -13.88V-12.96H640.76V-13.92Q640.76 -16.36 639.52 -17.68Q638.28 -19.0 636.0 -19.0Q633.72 -19.0 632.48 -17.66Q631.24 -16.32 631.24 -13.88Z M663.4 0.0Q660.28 0.0 658.42 -1.82Q656.56 -3.64 656.56 -6.68V-25.28H649.16V-29.2H660.88V-6.76Q660.88 -5.44 661.6 -4.68Q662.32 -3.92 663.56 -3.92H670.2V0.0Z M684.0 0.36Q679.92 0.36 677.5 -2.0Q675.08 -4.36 675.08 -8.44V-13.56Q675.08 -17.68 677.48 -20.02Q679.88 -22.36 684.0 -22.36Q688.12 -22.36 690.52 -20.02Q692.92 -17.68 692.92 -13.56V-8.44Q692.92 -4.36 690.5 -2.0Q688.08 0.36 684.0 0.36ZM684.0 -3.44Q686.16 -3.44 687.38 -4.66Q688.6 -5.88 688.6 -8.16V-13.84Q688.6 -16.12 687.38 -17.34Q686.16 -18.56 684.0 -18.56Q681.84 -18.56 680.62 -17.34Q679.4 -16.12 679.4 -13.84V-8.16Q679.4 -5.88 680.62 -4.66Q681.84 -3.44 684.0 -3.44Z M699.36 0.0V-22.0H703.64V-17.8Q703.96 -19.96 705.5 -21.18Q707.04 -22.400000000000002 709.52 -22.400000000000002Q712.8 -22.400000000000002 714.76 -20.3Q716.72 -18.2 716.72 -14.64V0.0H712.4V-14.0Q712.4 -16.28 711.24 -17.5Q710.08 -18.72 708.08 -18.72Q706.04 -18.72 704.8599999999999 -17.439999999999998Q703.68 -16.16 703.68 -13.88V0.0Z M726.24 7.2V3.48H732.44Q734.24 3.48 735.28 2.48Q736.32 1.48 736.32 -0.24V-1.8800000000000001L736.4 -5.5600000000000005Q735.88 -3.6 734.3399999999999 -2.52Q732.8 -1.44 730.52 -1.44Q727.12 -1.44 725.1600000000001 -3.6399999999999997Q723.2 -5.84 723.2 -9.68V-14.120000000000001Q723.2 -17.92 725.1600000000001 -20.160000000000004Q727.12 -22.400000000000002 730.52 -22.400000000000002Q732.8 -22.400000000000002 734.3199999999999 -21.32Q735.84 -20.240000000000002 736.36 -18.28V-22.0H740.6V-0.16Q740.6 3.24 738.4200000000001 5.220000000000001Q736.24 7.2 732.48 7.2ZM731.92 -5.08Q733.96 -5.08 735.1400000000001 -6.34Q736.32 -7.6000000000000005 736.32 -9.88V-13.88Q736.32 -16.12 735.1400000000001 -17.380000000000003Q733.96 -18.64 731.92 -18.64Q729.8 -18.64 728.66 -17.44Q727.52 -16.240000000000002 727.52 -14.16V-9.6Q727.52 -7.48 728.66 -6.28Q729.8 -5.08 731.92 -5.08Z M782.2 0.0Q779.28 0.0 777.56 -1.68Q775.84 -3.36 775.84 -6.24V-18.080000000000002H769.64V-22.0H775.84V-28.2H780.16V-22.0H789.04V-18.080000000000002H780.16V-6.28Q780.16 -5.24 780.76 -4.58Q781.36 -3.92 782.4 -3.92H788.84V0.0Z M804.0 0.36Q799.92 0.36 797.5 -2.0Q795.08 -4.36 795.08 -8.44V-13.56Q795.08 -17.68 797.48 -20.02Q799.88 -22.36 804.0 -22.36Q808.12 -22.36 810.52 -20.02Q812.92 -17.68 812.92 -13.56V-8.44Q812.92 -4.36 810.5 -2.0Q808.08 0.36 804.0 0.36ZM804.0 -3.44Q806.16 -3.44 807.38 -4.66Q808.6 -5.88 808.6 -8.16V-13.84Q808.6 -16.12 807.38 -17.34Q806.16 -18.56 804.0 -18.56Q801.84 -18.56 800.62 -17.34Q799.4 -16.12 799.4 -13.84V-8.16Q799.4 -5.88 800.62 -4.66Q801.84 -3.44 804.0 -3.44Z M851.96 0.4Q847.96 0.4 845.62 -1.9000000000000001Q843.28 -4.2 843.28 -8.16V-22.0H847.6V-8.2Q847.6 -5.96 848.76 -4.66Q849.92 -3.36 851.96 -3.36Q854.04 -3.36 855.22 -4.66Q856.4 -5.96 856.4 -8.2V-22.0H860.72V-8.16Q860.72 -4.2 858.34 -1.9000000000000001Q855.96 0.4 851.96 0.4Z M875.12 0.36Q871.32 0.36 869.1600000000001 -1.36Q867.0 -3.08 867.0 -6.16H871.28Q871.28 -4.76 872.28 -3.98Q873.28 -3.2 875.12 -3.2H876.88Q878.76 -3.2 879.8 -3.98Q880.84 -4.76 880.84 -6.2Q880.84 -8.72 878.16 -9.08L872.36 -9.88Q869.92 -10.200000000000001 868.5799999999999 -11.82Q867.24 -13.44 867.24 -16.04Q867.24 -19.04 869.28 -20.7Q871.32 -22.36 875.04 -22.36H876.84Q880.28 -22.36 882.42 -20.72Q884.56 -19.080000000000002 884.68 -16.4H880.36Q880.28 -17.48 879.3399999999999 -18.18Q878.4 -18.88 876.84 -18.88H875.04Q873.32 -18.88 872.3800000000001 -18.119999999999997Q871.44 -17.36 871.44 -16.080000000000002Q871.44 -14.040000000000001 873.72 -13.72L879.16 -13.0Q885.04 -12.200000000000001 885.04 -6.24Q885.04 -3.08 882.92 -1.36Q880.8 0.36 876.88 0.36Z" fill="#F7FAF9"/></g><rect x="156.0" y="411" width="888" height="3" rx="1.5" fill="#2DD4BF"/><g transform="translate(510.9,572)"><path d="M6.6 0.19799999999999998Q4.356 0.19799999999999998 3.025 -1.0999999999999999Q1.694 -2.3979999999999997 1.694 -4.6419999999999995V-7.457999999999999Q1.694 -9.724 3.014 -11.011Q4.334 -12.298 6.6 -12.298Q8.866 -12.298 10.186 -11.011Q11.505999999999998 -9.724 11.505999999999998 -7.457999999999999V-4.6419999999999995Q11.505999999999998 -2.3979999999999997 10.174999999999999 -1.0999999999999999Q8.844 0.19799999999999998 6.6 0.19799999999999998ZM6.6 -1.892Q7.787999999999999 -1.892 8.459 -2.5629999999999997Q9.129999999999999 -3.234 9.129999999999999 -4.4879999999999995V-7.611999999999999Q9.129999999999999 -8.866 8.459 -9.536999999999999Q7.787999999999999 -10.208 6.6 -10.208Q5.412 -10.208 4.741 -9.536999999999999Q4.069999999999999 -8.866 4.069999999999999 -7.611999999999999V-4.4879999999999995Q4.069999999999999 -3.234 4.741 -2.5629999999999997Q5.412 -1.892 6.6 -1.892Z M18.048 3.96V-12.1H20.402V-9.812Q20.644 -11.0 21.512999999999998 -11.66Q22.381999999999998 -12.319999999999999 23.701999999999998 -12.319999999999999Q25.506 -12.319999999999999 26.584 -11.076999999999998Q27.662 -9.834 27.662 -7.765999999999999V-4.356Q27.662 -2.266 26.584 -1.0230000000000001Q25.506 0.21999999999999997 23.701999999999998 0.21999999999999997Q22.381999999999998 0.21999999999999997 21.502 -0.473Q20.622 -1.166 20.38 -2.376H20.357999999999997L20.424 0.506V3.96ZM22.866 -1.8479999999999999Q24.009999999999998 -1.8479999999999999 24.648 -2.453Q25.286 -3.058 25.286 -4.3999999999999995V-7.7219999999999995Q25.286 -9.042 24.648 -9.646999999999998Q24.009999999999998 -10.251999999999999 22.866 -10.251999999999999Q21.721999999999998 -10.251999999999999 21.073 -9.559Q20.424 -8.866 20.424 -7.611999999999999V-4.51Q20.424 -3.234 21.073 -2.541Q21.721999999999998 -1.8479999999999999 22.866 -1.8479999999999999Z M39.0 0.21999999999999997Q36.778 0.21999999999999997 35.436 -1.0779999999999998Q34.094 -2.376 34.094 -4.62V-7.4799999999999995Q34.094 -9.724 35.436 -11.021999999999998Q36.778 -12.319999999999999 39.0 -12.319999999999999Q40.495999999999995 -12.319999999999999 41.596 -11.736999999999998Q42.696 -11.154 43.301 -10.097999999999999Q43.906 -9.042 43.906 -7.6339999999999995V-5.4559999999999995H36.382V-4.465999999999999Q36.382 -3.19 37.086 -2.4859999999999998Q37.79 -1.7819999999999998 39.0 -1.7819999999999998Q39.989999999999995 -1.7819999999999998 40.65 -2.145Q41.31 -2.508 41.442 -3.146H43.796Q43.554 -1.6059999999999999 42.245000000000005 -0.693Q40.936 0.21999999999999997 39.0 0.21999999999999997ZM36.382 -7.6339999999999995V-7.127999999999999H41.617999999999995V-7.656Q41.617999999999995 -8.998 40.93599999999999 -9.724Q40.254 -10.45 39.0 -10.45Q37.745999999999995 -10.45 37.06399999999999 -9.713Q36.382 -8.975999999999999 36.382 -7.6339999999999995Z M50.44799999999999 0.0V-12.1H52.80199999999999V-9.79Q52.977999999999994 -10.978 53.824999999999996 -11.649Q54.672 -12.319999999999999 56.035999999999994 -12.319999999999999Q57.839999999999996 -12.319999999999999 58.91799999999999 -11.165Q59.995999999999995 -10.01 59.995999999999995 -8.052V0.0H57.61999999999999V-7.699999999999999Q57.61999999999999 -8.953999999999999 56.98199999999999 -9.625Q56.343999999999994 -10.296 55.24399999999999 -10.296Q54.12199999999999 -10.296 53.473 -9.591999999999999Q52.824 -8.888 52.824 -7.6339999999999995V0.0Z M87.116 0.19799999999999998Q85.026 0.19799999999999998 83.838 -0.748Q82.65 -1.694 82.65 -3.388H85.004Q85.004 -2.618 85.554 -2.189Q86.104 -1.7599999999999998 87.116 -1.7599999999999998H88.084Q89.118 -1.7599999999999998 89.69 -2.189Q90.262 -2.618 90.262 -3.4099999999999997Q90.262 -4.795999999999999 88.788 -4.994L85.598 -5.433999999999999Q84.256 -5.609999999999999 83.519 -6.5009999999999994Q82.782 -7.3919999999999995 82.782 -8.822Q82.782 -10.472 83.904 -11.385Q85.026 -12.298 87.072 -12.298H88.062Q89.954 -12.298 91.131 -11.396Q92.30799999999999 -10.494 92.374 -9.02H89.998Q89.954 -9.613999999999999 89.437 -9.998999999999999Q88.92 -10.383999999999999 88.062 -10.383999999999999H87.072Q86.126 -10.383999999999999 85.60900000000001 -9.966Q85.092 -9.548 85.092 -8.844Q85.092 -7.7219999999999995 86.346 -7.545999999999999L89.338 -7.1499999999999995Q92.572 -6.71 92.572 -3.432Q92.572 -1.694 91.406 -0.748Q90.24 0.19799999999999998 88.084 0.19799999999999998Z M103.8 0.19799999999999998Q101.556 0.19799999999999998 100.225 -1.0999999999999999Q98.894 -2.3979999999999997 98.894 -4.6419999999999995V-7.457999999999999Q98.894 -9.724 100.214 -11.011Q101.534 -12.298 103.8 -12.298Q106.066 -12.298 107.386 -11.011Q108.706 -9.724 108.706 -7.457999999999999V-4.6419999999999995Q108.706 -2.3979999999999997 107.375 -1.0999999999999999Q106.044 0.19799999999999998 103.8 0.19799999999999998ZM103.8 -1.892Q104.988 -1.892 105.65899999999999 -2.5629999999999997Q106.33 -3.234 106.33 -4.4879999999999995V-7.611999999999999Q106.33 -8.866 105.65899999999999 -9.536999999999999Q104.988 -10.208 103.8 -10.208Q102.61200000000001 -10.208 101.941 -9.536999999999999Q101.27 -8.866 101.27 -7.611999999999999V-4.4879999999999995Q101.27 -3.234 101.941 -2.5629999999999997Q102.61200000000001 -1.892 103.8 -1.892Z M119.97800000000001 0.21999999999999997Q117.778 0.21999999999999997 116.49100000000001 -1.045Q115.20400000000001 -2.31 115.20400000000001 -4.4879999999999995V-12.1H117.58000000000001V-4.51Q117.58000000000001 -3.278 118.21800000000002 -2.5629999999999997Q118.85600000000001 -1.8479999999999999 119.97800000000001 -1.8479999999999999Q121.122 -1.8479999999999999 121.771 -2.5629999999999997Q122.42 -3.278 122.42 -4.51V-12.1H124.796V-4.4879999999999995Q124.796 -2.31 123.487 -1.045Q122.178 0.21999999999999997 119.97800000000001 0.21999999999999997Z M131.888 0.0V-12.1H134.242V-9.724Q134.418 -10.934 135.276 -11.626999999999999Q136.134 -12.319999999999999 137.542 -12.319999999999999Q139.412 -12.319999999999999 140.446 -11.154Q141.48 -9.988 141.48 -7.8759999999999994V-6.798H139.10399999999998V-7.81Q139.10399999999998 -10.251999999999999 136.706 -10.251999999999999Q135.518 -10.251999999999999 134.891 -9.559Q134.26399999999998 -8.866 134.26399999999998 -7.545999999999999V0.0Z M152.576 0.21999999999999997Q150.30999999999997 0.21999999999999997 148.94599999999997 -1.0339999999999998Q147.582 -2.288 147.582 -4.465999999999999V-7.6339999999999995Q147.582 -9.812 148.94599999999997 -11.065999999999999Q150.30999999999997 -12.319999999999999 152.576 -12.319999999999999Q154.77599999999998 -12.319999999999999 156.096 -11.175999999999998Q157.416 -10.032 157.504 -8.052H155.14999999999998Q155.08399999999997 -9.086 154.39099999999996 -9.658Q153.69799999999998 -10.229999999999999 152.576 -10.229999999999999Q151.36599999999999 -10.229999999999999 150.66199999999998 -9.559Q149.95799999999997 -8.888 149.95799999999997 -7.656V-4.465999999999999Q149.95799999999997 -3.2119999999999997 150.66199999999998 -2.541Q151.36599999999999 -1.8699999999999999 152.576 -1.8699999999999999Q153.71999999999997 -1.8699999999999999 154.402 -2.4419999999999997Q155.08399999999997 -3.014 155.14999999999998 -4.069999999999999H157.504Q157.416 -2.09 156.096 -0.9349999999999999Q154.77599999999998 0.21999999999999997 152.576 0.21999999999999997Z M168.59999999999997 0.21999999999999997Q166.378 0.21999999999999997 165.03599999999997 -1.0779999999999998Q163.69399999999996 -2.376 163.69399999999996 -4.62V-7.4799999999999995Q163.69399999999996 -9.724 165.03599999999997 -11.021999999999998Q166.378 -12.319999999999999 168.59999999999997 -12.319999999999999Q170.09599999999998 -12.319999999999999 171.19599999999997 -11.736999999999998Q172.29599999999996 -11.154 172.90099999999995 -10.097999999999999Q173.50599999999997 -9.042 173.50599999999997 -7.6339999999999995V-5.4559999999999995H165.98199999999997V-4.465999999999999Q165.98199999999997 -3.19 166.68599999999998 -2.4859999999999998Q167.38999999999996 -1.7819999999999998 168.59999999999997 -1.7819999999999998Q169.58999999999997 -1.7819999999999998 170.24999999999997 -2.145Q170.90999999999997 -2.508 171.04199999999997 -3.146H173.39599999999996Q173.15399999999997 -1.6059999999999999 171.84499999999997 -0.693Q170.53599999999997 0.21999999999999997 168.59999999999997 0.21999999999999997ZM165.98199999999997 -7.6339999999999995V-7.127999999999999H171.21799999999996V-7.656Q171.21799999999996 -8.998 170.53599999999997 -9.724Q169.85399999999998 -10.45 168.59999999999997 -10.45Q167.34599999999998 -10.45 166.664 -9.713Q165.98199999999997 -8.975999999999999 165.98199999999997 -7.6339999999999995Z" fill="#8A94A0"/></g></svg>