<svg xmlns="http://www.w3.org/2000/svg" viewBox="0 0 1200 630" width="1200" height="630"><rect width="1200" height="630" fill="#0E1726"/><g opacity="0.06" fill="none" stroke="#F7FAF9" stroke-width="13.9" stroke-linecap="round" stroke-linejoin="round"><path d="M114 113 H54 V517 H114"/><path d="M1086 113 H1146 V517 H1086"/></g><g transform="translate(246.8,175.0) scale(1.5000)"><g fill="none" stroke="#F7FAF9" stroke-width="8.5" stroke-linecap="round" stroke-linejoin="round"><path d="M37 27 H25 V73 H37"/><path d="M63 27 H75 V73 H63"/></g><path d="M38 52 L46 60 L62 40" fill="none" stroke="#2DD4BF" stroke-width="10" stroke-linecap="round" stroke-linejoin="round"/></g><g transform="translate(426.8,275.8)"><path d="M26.488 0.8599999999999999Q17.63 0.8599999999999999 12.297999999999998 -4.042Q6.965999999999999 -8.943999999999999 6.965999999999999 -17.458V-29.842Q6.965999999999999 -38.355999999999995 12.297999999999998 -43.257999999999996Q17.63 -48.16 26.488 -48.16Q35.087999999999994 -48.16 40.24799999999999 -43.687999999999995Q45.407999999999994 -39.215999999999994 45.751999999999995 -31.476H36.55Q36.291999999999994 -35.518 33.583 -37.754Q30.874 -39.989999999999995 26.488 -39.989999999999995Q21.758 -39.989999999999995 19.006 -37.367Q16.253999999999998 -34.744 16.253999999999998 -29.927999999999997V-17.458Q16.253999999999998 -12.556 19.006 -9.933Q21.758 -7.31 26.488 -7.31Q30.959999999999997 -7.31 33.626 -9.546Q36.291999999999994 -11.781999999999998 36.55 -15.909999999999998H45.751999999999995Q45.407999999999994 -8.17 40.24799999999999 -3.6550000000000002Q35.087999999999994 0.8599999999999999 26.488 0.8599999999999999Z M77.39999999999999 0.7739999999999999Q68.62799999999999 0.7739999999999999 63.42499999999999 -4.3Q58.221999999999994 -9.373999999999999 58.221999999999994 -18.145999999999997V-29.153999999999996Q58.221999999999994 -38.012 63.382 -43.043Q68.542 -48.074 77.39999999999999 -48.074Q86.25799999999998 -48.074 91.41799999999998 -43.043Q96.57799999999999 -38.012 96.57799999999999 -29.153999999999996V-18.145999999999997Q96.57799999999999 -9.373999999999999 91.375 -4.3Q86.172 0.7739999999999999 77.39999999999999 0.7739999999999999ZM77.39999999999999 -7.395999999999999Q82.044 -7.395999999999999 84.667 -10.018999999999998Q87.28999999999999 -12.642 87.28999999999999 -17.543999999999997V-29.755999999999997Q87.28999999999999 -34.657999999999994 84.667 -37.28099999999999Q82.044 -39.903999999999996 77.39999999999999 -39.903999999999996Q72.756 -39.903999999999996 70.133 -37.28099999999999Q67.50999999999999 -34.657999999999994 67.50999999999999 -29.755999999999997V-17.543999999999997Q67.50999999999999 -12.642 70.133 -10.018999999999998Q72.756 -7.395999999999999 77.39999999999999 -7.395999999999999Z M110.42399999999999 0.0V-47.3H119.62599999999999V-38.269999999999996Q120.314 -42.913999999999994 123.62499999999999 -45.53699999999999Q126.93599999999998 -48.16 132.26799999999997 -48.16Q139.32 -48.16 143.534 -43.644999999999996Q147.748 -39.129999999999995 147.748 -31.476V0.0H138.45999999999998V-30.099999999999998Q138.45999999999998 -35.001999999999995 135.96599999999998 -37.625Q133.47199999999998 -40.248 129.172 -40.248Q124.78599999999999 -40.248 122.249 -37.495999999999995Q119.71199999999999 -34.744 119.71199999999999 -29.842V0.0Z M172.688 0.0V-32.422H159.272V-40.849999999999994H172.688V-49.965999999999994Q172.688 -55.9 176.47199999999998 -59.339999999999996Q180.25599999999997 -62.779999999999994 186.79199999999997 -62.779999999999994H200.63799999999998V-54.523999999999994H186.96399999999997Q181.97599999999997 -54.523999999999994 181.97599999999997 -49.879999999999995V-40.849999999999994H200.63799999999998V-32.422H181.97599999999997V0.0Z M232.2 0.7739999999999999Q223.42799999999997 0.7739999999999999 218.22499999999997 -4.3Q213.022 -9.373999999999999 213.022 -18.145999999999997V-29.153999999999996Q213.022 -38.012 218.182 -43.043Q223.34199999999998 -48.074 232.2 -48.074Q241.05799999999996 -48.074 246.21799999999996 -43.043Q251.378 -38.012 251.378 -29.153999999999996V-18.145999999999997Q251.378 -9.373999999999999 246.17499999999998 -4.3Q240.97199999999998 0.7739999999999999 232.2 0.7739999999999999ZM232.2 -7.395999999999999Q236.84399999999997 -7.395999999999999 239.46699999999998 -10.018999999999998Q242.08999999999997 -12.642 242.08999999999997 -17.543999999999997V-29.755999999999997Q242.08999999999997 -34.657999999999994 239.46699999999998 -37.28099999999999Q236.84399999999997 -39.903999999999996 232.2 -39.903999999999996Q227.55599999999998 -39.903999999999996 224.933 -37.28099999999999Q222.30999999999997 -34.657999999999994 222.30999999999997 -29.755999999999997V-17.543999999999997Q222.30999999999997 -12.642 224.933 -10.018999999999998Q227.55599999999998 -7.395999999999999 232.2 -7.395999999999999Z M266.944 0.0V-47.3H276.146V-38.012Q276.834 -42.742 280.188 -45.45099999999999Q283.542 -48.16 289.046 -48.16Q296.356 -48.16 300.398 -43.602Q304.44 -39.044 304.44 -30.787999999999997V-26.573999999999998H295.152V-30.529999999999998Q295.152 -40.07599999999999 285.778 -40.07599999999999Q281.134 -40.07599999999999 278.683 -37.36699999999999Q276.23199999999997 -34.657999999999994 276.23199999999997 -29.497999999999998V0.0Z M314.158 0.0V-47.3H322.07000000000005V-40.678H322.242Q322.586 -44.032 324.736 -46.096Q326.886 -48.16 330.154 -48.16Q333.25 -48.16 335.443 -46.224999999999994Q337.636 -44.29 338.49600000000004 -41.022Q339.012 -44.29 341.16200000000003 -46.224999999999994Q343.312 -48.16 346.666 -48.16Q351.052 -48.16 353.847 -44.763Q356.642 -41.366 356.642 -36.034V0.0H348.214V-35.604Q348.214 -38.184 347.01 -39.68899999999999Q345.80600000000004 -41.193999999999996 343.656 -41.193999999999996Q341.50600000000003 -41.193999999999996 340.345 -39.732Q339.184 -38.269999999999996 339.184 -35.69V0.0H331.61600000000004V-35.604Q331.61600000000004 -38.184 330.45500000000004 -39.68899999999999Q329.29400000000004 -41.193999999999996 327.144 -41.193999999999996Q324.994 -41.193999999999996 323.79 -39.732Q322.586 -38.269999999999996 322.586 -35.69V0.0Z" fill="#F7FAF9"/><path d="M369.80 -23.79 L384.71 -8.89 L414.52 -46.15" fill="none" stroke="#2DD4BF" stroke-width="18.63" stroke-linecap="round" stroke-linejoin="round"/><path d="M448.92000000000013 0.8599999999999999Q440.2340000000001 0.8599999999999999 434.9880000000001 -4.2139999999999995Q429.74200000000013 -9.287999999999998 429.74200000000013 -18.06V-29.24Q429.74200000000013 -38.012 434.9880000000001 -43.086Q440.2340000000001 -48.16 448.92000000000013 -48.16Q454.76800000000014 -48.16 459.0680000000001 -45.881Q463.3680000000001 -43.602 465.7330000000001 -39.474Q468.0980000000001 -35.346 468.0980000000001 -29.842V-21.328H438.6860000000001V-17.458Q438.6860000000001 -12.469999999999999 441.4380000000001 -9.718Q444.1900000000001 -6.965999999999999 448.92000000000013 -6.965999999999999Q452.79000000000013 -6.965999999999999 455.3700000000001 -8.384999999999998Q457.9500000000001 -9.803999999999998 458.4660000000001 -12.297999999999998H467.6680000000001Q466.7220000000001 -6.278 461.60500000000013 -2.7089999999999996Q456.4880000000001 0.8599999999999999 448.92000000000013 0.8599999999999999ZM438.6860000000001 -29.842V-27.863999999999997H459.1540000000001V-29.927999999999997Q459.1540000000001 -35.174 456.4880000000001 -38.012Q453.8220000000001 -40.849999999999994 448.92000000000013 -40.849999999999994Q444.01800000000014 -40.849999999999994 441.3520000000001 -37.968999999999994Q438.6860000000001 -35.087999999999994 438.6860000000001 -29.842Z M496.99400000000014 0.8599999999999999Q489.9420000000001 0.8599999999999999 485.7280000000001 -3.9559999999999995Q481.5140000000001 -8.771999999999998 481.5140000000001 -16.942V-30.272Q481.5140000000001 -38.528 485.7280000000001 -43.343999999999994Q489.9420000000001 -48.16 496.99400000000014 -48.16Q502.06800000000015 -48.16 505.55100000000016 -45.58Q509.03400000000016 -43.0 510.06600000000014 -38.355999999999995L509.8080000000001 -49.278V-62.779999999999994H519.0960000000001V0.0H509.8940000000001V-8.943999999999999Q508.94800000000015 -4.3 505.55100000000016 -1.72Q502.1540000000001 0.8599999999999999 496.99400000000014 0.8599999999999999ZM500.2620000000001 -7.223999999999999Q504.73400000000015 -7.223999999999999 507.27100000000013 -9.933Q509.8080000000001 -12.642 509.8080000000001 -17.63V-29.755999999999997Q509.8080000000001 -34.657999999999994 507.27100000000013 -37.36699999999999Q504.73400000000015 -40.07599999999999 500.2620000000001 -40.07599999999999Q495.79000000000013 -40.07599999999999 493.29600000000016 -37.711Q490.80200000000013 -35.346 490.80200000000013 -30.185999999999996V-17.2Q490.80200000000013 -11.953999999999999 493.29600000000016 -9.588999999999999Q495.79000000000013 -7.223999999999999 500.2620000000001 -7.223999999999999Z" fill="#F7FAF9"/></g><g transform="translate(312.0,386)"><path d="M3.92 0.0V-3.92H9.8V-25.28H3.92V-29.2H20.12V-25.28H14.200000000000001V-3.92H20.12V0.0Z M38.2 0.0Q35.28 0.0 33.56 -1.68Q31.84 -3.36 31.84 -6.24V-18.080000000000002H25.64V-22.0H31.84V-28.2H36.16V-22.0H45.04V-18.080000000000002H36.16V-6.28Q36.16 -5.24 36.76 -4.58Q37.36 -3.92 38.4 -3.92H44.84V0.0Z M84.32 0.4Q80.2 0.4 77.72 -1.8800000000000001Q75.24 -4.16 75.24 -8.120000000000001V-13.88Q75.24 -17.84 77.72 -20.12Q80.2 -22.400000000000002 84.32 -22.400000000000002Q88.32 -22.400000000000002 90.72 -20.32Q93.12 -18.240000000000002 93.28 -14.64H89.0Q88.88 -16.52 87.62 -17.560000000000002Q86.36 -18.6 84.32 -18.6Q82.12 -18.6 80.84 -17.380000000000003Q79.56 -16.16 79.56 -13.92V-8.120000000000001Q79.56 -5.84 80.84 -4.62Q82.12 -3.4 84.32 -3.4Q86.4 -3.4 87.64 -4.44Q88.88 -5.48 89.0 -7.4H93.28Q93.12 -3.8000000000000003 90.72 -1.7000000000000002Q88.32 0.4 84.32 0.4Z M108.0 0.36Q103.92 0.36 101.5 -2.0Q99.08 -4.36 99.08 -8.44V-13.56Q99.08 -17.68 101.47999999999999 -20.02Q103.88 -22.36 108.0 -22.36Q112.12 -22.36 114.52000000000001 -20.02Q116.92 -17.68 116.92 -13.56V-8.44Q116.92 -4.36 114.5 -2.0Q112.08 0.36 108.0 0.36ZM108.0 -3.44Q110.16 -3.44 111.38 -4.66Q112.6 -5.88 112.6 -8.16V-13.84Q112.6 -16.12 111.38 -17.34Q110.16 -18.56 108.0 -18.56Q105.84 -18.56 104.62 -17.34Q103.4 -16.12 103.4 -13.84V-8.16Q103.4 -5.88 104.62 -4.66Q105.84 -3.44 108.0 -3.44Z M123.36 0.0V-22.0H127.64V-17.8Q127.96 -19.96 129.5 -21.18Q131.04 -22.400000000000002 133.52 -22.400000000000002Q136.8 -22.400000000000002 138.76 -20.3Q140.72 -18.2 140.72 -14.64V0.0H136.4V-14.0Q136.4 -16.28 135.24 -17.5Q134.08 -18.72 132.08 -18.72Q130.04 -18.72 128.86 -17.439999999999998Q127.68 -16.16 127.68 -13.88V0.0Z M152.32 0.0V-15.08H146.08V-19.0H152.32V-23.240000000000002Q152.32 -26.0 154.07999999999998 -27.6Q155.84 -29.2 158.88 -29.2H165.32V-25.36H158.96Q156.64 -25.36 156.64 -23.2V-19.0H165.32V-15.08H156.64V0.0Z M180.0 0.36Q175.92 0.36 173.5 -2.0Q171.08 -4.36 171.08 -8.44V-13.56Q171.08 -17.68 173.48000000000002 -20.02Q175.88 -22.36 180.0 -22.36Q184.12 -22.36 186.52 -20.02Q188.92000000000002 -17.68 188.92000000000002 -13.56V-8.44Q188.92000000000002 -4.36 186.5 -2.0Q184.08 0.36 180.0 0.36ZM180.0 -3.44Q182.16 -3.44 183.38 -4.66Q184.6 -5.88 184.6 -8.16V-13.84Q184.6 -16.12 183.38 -17.34Q182.16 -18.56 180.0 -18.56Q177.84 -18.56 176.62 -17.34Q175.4 -16.12 175.4 -13.84V-8.16Q175.4 -5.88 176.62 -4.66Q177.84 -3.44 180.0 -3.44Z M196.16 0.0V-22.0H200.44V-17.68Q200.76 -19.88 202.32 -21.14Q203.88 -22.400000000000002 206.44 -22.400000000000002Q209.84 -22.400000000000002 211.72 -20.28Q213.6 -18.16 213.6 -14.32V-12.36H209.28V-14.200000000000001Q209.28 -18.64 204.92 -18.64Q202.76 -18.64 201.62 -17.380000000000003Q200.48 -16.12 200.48 -13.72V0.0Z M218.12 0.0V-22.0H221.8V-18.92H221.88Q222.04 -20.48 223.04 -21.44Q224.04 -22.400000000000002 225.56 -22.400000000000002Q227.0 -22.400000000000002 228.01999999999998 -21.5Q229.04 -20.6 229.44 -19.080000000000002Q229.68 -20.6 230.68 -21.5Q231.68 -22.400000000000002 233.24 -22.400000000000002Q235.28 -22.400000000000002 236.57999999999998 -20.82Q237.88 -19.240000000000002 237.88 -16.76V0.0H233.96V-16.56Q233.96 -17.76 233.4 -18.46Q232.84 -19.16 231.84 -19.16Q230.84 -19.16 230.3 -18.48Q229.76 -17.8 229.76 -16.6V0.0H226.24V-16.56Q226.24 -17.76 225.7 -18.46Q225.16 -19.16 224.16 -19.16Q223.16 -19.16 222.6 -18.48Q222.04 -17.8 222.04 -16.6V0.0Z M251.12 0.36Q247.32 0.36 245.16 -1.36Q243.0 -3.08 243.0 -6.16H247.28Q247.28 -4.76 248.28 -3.98Q249.28 -3.2 251.12 -3.2H252.88Q254.76 -3.2 255.79999999999998 -3.98Q256.84 -4.76 256.84 -6.2Q256.84 -8.72 254.16 -9.08L248.36 -9.88Q245.92 -10.200000000000001 244.57999999999998 -11.82Q243.24 -13.44 243.24 -16.04Q243.24 -19.04 245.28 -20.7Q247.32 -22.36 251.04 -22.36H252.84Q256.28 -22.36 258.41999999999996 -20.72Q260.56 -19.080000000000002 260.68 -16.4H256.36Q256.28 -17.48 255.33999999999997 -18.18Q254.4 -18.88 252.84 -18.88H251.04Q249.32 -18.88 248.38 -18.119999999999997Q247.44 -17.36 247.44 -16.080000000000002Q247.44 -14.040000000000001 249.72 -13.72L255.16 -13.0Q261.04 -12.200000000000001 261.04 -6.24Q261.04 -3.08 258.92 -1.36Q256.8 0.36 252.88 0.36Z M276.0 0.4Q274.44 0.4 273.46000000000004 -0.54Q272.48 -1.48 272.48 -3.04Q272.48 -4.6000000000000005 273.46000000000004 -5.58Q274.44 -6.5600000000000005 276.0 -6.5600000000000005Q277.56 -6.5600000000000005 278.53999999999996 -5.58Q279.52 -4.6000000000000005 279.52 -3.04Q279.52 -1.48 278.53999999999996 -0.54Q277.56 0.4 276.0 0.4Z" fill="#F7FAF9"/><path d="M315.92 0.0 312.68 -29.2H316.44L318.48 -8.24Q318.6 -7.04 318.68 -5.52Q318.76 -4.0 318.8 -3.04Q318.92 -4.0 319.04 -5.52Q319.16 -7.04 319.32 -8.24L322.04 -29.2H326.12L328.64 -8.24Q328.76 -7.04 328.94 -5.52Q329.12 -4.0 329.2 -3.04Q329.28 -4.0 329.38 -5.52Q329.48 -7.04 329.6 -8.24L331.68 -29.2H335.32L331.96 0.0H326.92L324.48 -21.240000000000002Q324.36 -22.48 324.24 -23.96Q324.12 -25.44 324.04 -26.36Q323.96 -25.44 323.86 -23.96Q323.76 -22.48 323.6 -21.240000000000002L321.0 0.0Z M348.0 0.4Q343.96 0.4 341.52 -1.9600000000000002Q339.08 -4.32 339.08 -8.4V-13.6Q339.08 -17.68 341.52 -20.04Q343.96 -22.400000000000002 348.0 -22.400000000000002Q350.72 -22.400000000000002 352.72 -21.340000000000003Q354.72 -20.28 355.82000000000005 -18.36Q356.92 -16.44 356.92 -13.88V-9.92H343.24V-8.120000000000001Q343.24 -5.8 344.52 -4.52Q345.8 -3.24 348.0 -3.24Q349.8 -3.24 351.0 -3.9000000000000004Q352.2 -4.5600000000000005 352.44 -5.72H356.72Q356.28 -2.92 353.9 -1.26Q351.52 0.4 348.0 0.4ZM343.24 -13.88V-12.96H352.76V-13.92Q352.76 -16.36 351.52 -17.68Q350.28 -19.0 348.0 -19.0Q345.72 -19.0 344.48 -17.66Q343.24 -16.32 343.24 -13.88Z M396.32 0.4Q392.2 0.4 389.72 -1.8800000000000001Q387.24 -4.16 387.24 -8.120000000000001V-13.88Q387.24 -17.84 389.72 -20.12Q392.2 -22.400000000000002 396.32 -22.400000000000002Q400.32 -22.400000000000002 402.72 -20.32Q405.12 -18.240000000000002 405.28 -14.64H401.0Q400.88 -16.52 399.62 -17.560000000000002Q398.36 -18.6 396.32 -18.6Q394.12 -18.6 392.84000000000003 -17.380000000000003Q391.56 -16.16 391.56 -13.92V-8.120000000000001Q391.56 -5.84 392.84000000000003 -4.62Q394.12 -3.4 396.32 -3.4Q398.4 -3.4 399.64 -4.44Q400.88 -5.48 401.0 -7.4H405.28Q405.12 -3.8000000000000003 402.72 -1.7000000000000002Q400.32 0.4 396.32 0.4Z M411.36 0.0V-29.2H415.68V-22.0L415.64 -17.8Q415.96 -19.96 417.5 -21.18Q419.04 -22.400000000000002 421.52 -22.400000000000002Q424.8 -22.400000000000002 426.76 -20.3Q428.72 -18.2 428.72 -14.64V0.0H424.4V-14.040000000000001Q424.4 -16.28 423.24 -17.5Q422.08 -18.72 420.08 -18.72Q418.04 -18.72 416.86 -17.439999999999998Q415.68 -16.16 415.68 -13.88V0.0Z M444.0 0.4Q439.96 0.4 437.52 -1.9600000000000002Q435.08 -4.32 435.08 -8.4V-13.6Q435.08 -17.68 437.52 -20.04Q439.96 -22.400000000000002 444.0 -22.400000000000002Q446.72 -22.400000000000002 448.72 -21.340000000000003Q450.72 -20.28 451.82000000000005 -18.36Q452.92 -16.44 452.92 -13.88V-9.92H439.24V-8.120000000000001Q439.24 -5.8 440.52 -4.52Q441.8 -3.24 444.0 -3.24Q445.8 -3.24 447.0 -3.9000000000000004Q448.2 -4.5600000000000005 448.44 -5.72H452.72Q452.28 -2.92 449.9 -1.26Q447.52 0.4 444.0 0.4ZM439.24 -13.88V-12.96H448.76V-13.92Q448.76 -16.36 447.52 -17.68Q446.28 -19.0 444.0 -19.0Q441.72 -19.0 440.48 -17.66Q439.24 -16.32 439.24 -13.88Z M468.32 0.4Q464.2 0.4 461.72 -1.8800000000000001Q459.24 -4.16 459.24 -8.120000000000001V-13.88Q459.24 -17.84 461.72 -20.12Q464.2 -22.400000000000002 468.32 -22.400000000000002Q472.32 -22.400000000000002 474.72 -20.32Q477.12 -18.240000000000002 477.28 -14.64H473.0Q472.88 -16.52 471.62 -17.560000000000002Q470.36 -18.6 468.32 -18.6Q466.12 -18.6 464.84000000000003 -17.380000000000003Q463.56 -16.16 463.56 -13.92V-8.120000000000001Q463.56 -5.84 464.84000000000003 -4.62Q466.12 -3.4 468.32 -3.4Q470.4 -3.4 471.64 -4.44Q472.88 -5.48 473.0 -7.4H477.28Q477.12 -3.8000000000000003 474.72 -1.7000000000000002Q472.32 0.4 468.32 0.4Z M483.56 0.0V-29.2H487.88V-13.16H491.76L497.44 -22.0H502.28L495.52 -11.44L502.6 0.0H497.64L491.8 -9.44H487.88V0.0Z M516.0 0.4Q511.96 0.4 509.52 -1.9600000000000002Q507.08 -4.32 507.08 -8.4V-13.6Q507.08 -17.68 509.52 -20.04Q511.96 -22.400000000000002 516.0 -22.400000000000002Q518.72 -22.400000000000002 520.72 -21.340000000000003Q522.72 -20.28 523.8199999999999 -18.36Q524.92 -16.44 524.92 -13.88V-9.92H511.24V-8.120000000000001Q511.24 -5.8 512.52 -4.52Q513.8 -3.24 516.0 -3.24Q517.8 -3.24 519.0 -3.9000000000000004Q520.2 -4.5600000000000005 520.44 -5.72H524.72Q524.28 -2.92 521.9 -1.26Q519.52 0.4 516.0 0.4ZM511.24 -13.88V-12.96H520.76V-13.92Q520.76 -16.36 519.52 -17.68Q518.28 -19.0 516.0 -19.0Q513.72 -19.0 512.48 -17.66Q511.24 -16.32 511.24 -13.88Z M538.36 0.4Q535.08 0.4 533.12 -1.84Q531.16 -4.08 531.16 -7.88V-14.08Q531.16 -17.92 533.12 -20.160000000000004Q535.08 -22.400000000000002 538.36 -22.400000000000002Q540.72 -22.400000000000002 542.34 -21.200000000000003Q543.96 -20.0 544.44 -17.84L544.32 -22.92V-29.2H548.64V0.0H544.36V-4.16Q543.92 -2.0 542.3399999999999 -0.8Q540.76 0.4 538.36 0.4ZM539.88 -3.36Q541.96 -3.36 543.1400000000001 -4.62Q544.32 -5.88 544.32 -8.2V-13.84Q544.32 -16.12 543.1400000000001 -17.380000000000003Q541.96 -18.64 539.88 -18.64Q537.8 -18.64 536.64 -17.54Q535.48 -16.44 535.48 -14.040000000000001V-8.0Q535.48 -5.5600000000000005 536.64 -4.46Q537.8 -3.36 539.88 -3.36Z M564.0 0.4Q562.44 0.4 561.46 -0.54Q560.48 -1.48 560.48 -3.04Q560.48 -4.6000000000000005 561.46 -5.58Q562.44 -6.5600000000000005 564.0 -6.5600000000000005Q565.56 -6.5600000000000005 566.54 -5.58Q567.52 -4.6000000000000005 567.52 -3.04Q567.52 -1.48 566.54 -0.54Q565.56 0.4 564.0 0.4Z" fill="#2DD4BF"/></g><rect x="312.0" y="411" width="576" height="3" rx="1.5" fill="#2DD4BF"/><g transform="translate(510.9,572)"><path d="M6.6 0.19799999999999998Q4.356 0.19799999999999998 3.025 -1.0999999999999999Q1.694 -2.3979999999999997 1.694 -4.6419999999999995V-7.457999999999999Q1.694 -9.724 3.014 -11.011Q4.334 -12.298 6.6 -12.298Q8.866 -12.298 10.186 -11.011Q11.505999999999998 -9.724 11.505999999999998 -7.457999999999999V-4.6419999999999995Q11.505999999999998 -2.3979999999999997 10.174999999999999 -1.0999999999999999Q8.844 0.19799999999999998 6.6 0.19799999999999998ZM6.6 -1.892Q7.787999999999999 -1.892 8.459 -2.5629999999999997Q9.129999999999999 -3.234 9.129999999999999 -4.4879999999999995V-7.611999999999999Q9.129999999999999 -8.866 8.459 -9.536999999999999Q7.787999999999999 -10.208 6.6 -10.208Q5.412 -10.208 4.741 -9.536999999999999Q4.069999999999999 -8.866 4.069999999999999 -7.611999999999999V-4.4879999999999995Q4.069999999999999 -3.234 4.741 -2.5629999999999997Q5.412 -1.892 6.6 -1.892Z M18.048 3.96V-12.1H20.402V-9.812Q20.644 -11.0 21.512999999999998 -11.66Q22.381999999999998 -12.319999999999999 23.701999999999998 -12.319999999999999Q25.506 -12.319999999999999 26.584 -11.076999999999998Q27.662 -9.834 27.662 -7.765999999999999V-4.356Q27.662 -2.266 26.584 -1.0230000000000001Q25.506 0.21999999999999997 23.701999999999998 0.21999999999999997Q22.381999999999998 0.21999999999999997 21.502 -0.473Q20.622 -1.166 20.38 -2.376H20.357999999999997L20.424 0.506V3.96ZM22.866 -1.8479999999999999Q24.009999999999998 -1.8479999999999999 24.648 -2.453Q25.286 -3.058 25.286 -4.3999999999999995V-7.7219999999999995Q25.286 -9.042 24.648 -9.646999999999998Q24.009999999999998 -10.251999999999999 22.866 -10.251999999999999Q21.721999999999998 -10.251999999999999 21.073 -9.559Q20.424 -8.866 20.424 -7.611999999999999V-4.51Q20.424 -3.234 21.073 -2.541Q21.721999999999998 -1.8479999999999999 22.866 -1.8479999999999999Z M39.0 0.21999999999999997Q36.778 0.21999999999999997 35.436 -1.0779999999999998Q34.094 -2.376 34.094 -4.62V-7.4799999999999995Q34.094 -9.724 35.436 -11.021999999999998Q36.778 -12.319999999999999 39.0 -12.319999999999999Q40.495999999999995 -12.319999999999999 41.596 -11.736999999999998Q42.696 -11.154 43.301 -10.097999999999999Q43.906 -9.042 43.906 -7.6339999999999995V-5.4559999999999995H36.382V-4.465999999999999Q36.382 -3.19 37.086 -2.4859999999999998Q37.79 -1.7819999999999998 39.0 -1.7819999999999998Q39.989999999999995 -1.7819999999999998 40.65 -2.145Q41.31 -2.508 41.442 -3.146H43.796Q43.554 -1.6059999999999999 42.245000000000005 -0.693Q40.936 0.21999999999999997 39.0 0.21999999999999997ZM36.382 -7.6339999999999995V-7.127999999999999H41.617999999999995V-7.656Q41.617999999999995 -8.998 40.93599999999999 -9.724Q40.254 -10.45 39.0 -10.45Q37.745999999999995 -10.45 37.06399999999999 -9.713Q36.382 -8.975999999999999 36.382 -7.6339999999999995Z M50.44799999999999 0.0V-12.1H52.80199999999999V-9.79Q52.977999999999994 -10.978 53.824999999999996 -11.649Q54.672 -12.319999999999999 56.035999999999994 -12.319999999999999Q57.839999999999996 -12.319999999999999 58.91799999999999 -11.165Q59.995999999999995 -10.01 59.995999999999995 -8.052V0.0H57.61999999999999V-7.699999999999999Q57.61999999999999 -8.953999999999999 56.98199999999999 -9.625Q56.343999999999994 -10.296 55.24399999999999 -10.296Q54.12199999999999 -10.296 53.473 -9.591999999999999Q52.824 -8.888 52.824 -7.6339999999999995V0.0Z M87.116 0.19799999999999998Q85.026 0.19799999999999998 83.838 -0.748Q82.65 -1.694 82.65 -3.388H85.004Q85.004 -2.618 85.554 -2.189Q86.104 -1.7599999999999998 87.116 -1.7599999999999998H88.084Q89.118 -1.7599999999999998 89.69 -2.189Q90.262 -2.618 90.262 -3.4099999999999997Q90.262 -4.795999999999999 88.788 -4.994L85.598 -5.433999999999999Q84.256 -5.609999999999999 83.519 -6.5009999999999994Q82.782 -7.3919999999999995 82.782 -8.822Q82.782 -10.472 83.904 -11.385Q85.026 -12.298 87.072 -12.298H88.062Q89.954 -12.298 91.131 -11.396Q92.30799999999999 -10.494 92.374 -9.02H89.998Q89.954 -9.613999999999999 89.437 -9.998999999999999Q88.92 -10.383999999999999 88.062 -10.383999999999999H87.072Q86.126 -10.383999999999999 85.60900000000001 -9.966Q85.092 -9.548 85.092 -8.844Q85.092 -7.7219999999999995 86.346 -7.545999999999999L89.338 -7.1499999999999995Q92.572 -6.71 92.572 -3.432Q92.572 -1.694 91.406 -0.748Q90.24 0.19799999999999998 88.084 0.19799999999999998Z M103.8 0.19799999999999998Q101.556 0.19799999999999998 100.225 -1.0999999999999999Q98.894 -2.3979999999999997 98.894 -4.6419999999999995V-7.457999999999999Q98.894 -9.724 100.214 -11.011Q101.534 -12.298 103.8 -12.298Q106.066 -12.298 107.386 -11.011Q108.706 -9.724 108.706 -7.457999999999999V-4.6419999999999995Q108.706 -2.3979999999999997 107.375 -1.0999999999999999Q106.044 0.19799999999999998 103.8 0.19799999999999998ZM103.8 -1.892Q104.988 -1.892 105.65899999999999 -2.5629999999999997Q106.33 -3.234 106.33 -4.4879999999999995V-7.611999999999999Q106.33 -8.866 105.65899999999999 -9.536999999999999Q104.988 -10.208 103.8 -10.208Q102.61200000000001 -10.208 101.941 -9.536999999999999Q101.27 -8.866 101.27 -7.611999999999999V-4.4879999999999995Q101.27 -3.234 101.941 -2.5629999999999997Q102.61200000000001 -1.892 103.8 -1.892Z M119.97800000000001 0.21999999999999997Q117.778 0.21999999999999997 116.49100000000001 -1.045Q115.20400000000001 -2.31 115.20400000000001 -4.4879999999999995V-12.1H117.58000000000001V-4.51Q117.58000000000001 -3.278 118.21800000000002 -2.5629999999999997Q118.85600000000001 -1.8479999999999999 119.97800000000001 -1.8479999999999999Q121.122 -1.8479999999999999 121.771 -2.5629999999999997Q122.42 -3.278 122.42 -4.51V-12.1H124.796V-4.4879999999999995Q124.796 -2.31 123.487 -1.045Q122.178 0.21999999999999997 119.97800000000001 0.21999999999999997Z M131.888 0.0V-12.1H134.242V-9.724Q134.418 -10.934 135.276 -11.626999999999999Q136.134 -12.319999999999999 137.542 -12.319999999999999Q139.412 -12.319999999999999 140.446 -11.154Q141.48 -9.988 141.48 -7.8759999999999994V-6.798H139.10399999999998V-7.81Q139.10399999999998 -10.251999999999999 136.706 -10.251999999999999Q135.518 -10.251999999999999 134.891 -9.559Q134.26399999999998 -8.866 134.26399999999998 -7.545999999999999V0.0Z M152.576 0.21999999999999997Q150.30999999999997 0.21999999999999997 148.94599999999997 -1.0339999999999998Q147.582 -2.288 147.582 -4.465999999999999V-7.6339999999999995Q147.582 -9.812 148.94599999999997 -11.065999999999999Q150.30999999999997 -12.319999999999999 152.576 -12.319999999999999Q154.77599999999998 -12.319999999999999 156.096 -11.175999999999998Q157.416 -10.032 157.504 -8.052H155.14999999999998Q155.08399999999997 -9.086 154.39099999999996 -9.658Q153.69799999999998 -10.229999999999999 152.576 -10.229999999999999Q151.36599999999999 -10.229999999999999 150.66199999999998 -9.559Q149.95799999999997 -8.888 149.95799999999997 -7.656V-4.465999999999999Q149.95799999999997 -3.2119999999999997 150.66199999999998 -2.541Q151.36599999999999 -1.8699999999999999 152.576 -1.8699999999999999Q153.71999999999997 -1.8699999999999999 154.402 -2.4419999999999997Q155.08399999999997 -3.014 155.14999999999998 -4.069999999999999H157.504Q157.416 -2.09 156.096 -0.9349999999999999Q154.77599999999998 0.21999999999999997 152.576 0.21999999999999997Z M168.59999999999997 0.21999999999999997Q166.378 0.21999999999999997 165.03599999999997 -1.0779999999999998Q163.69399999999996 -2.376 163.69399999999996 -4.62V-7.4799999999999995Q163.69399999999996 -9.724 165.03599999999997 -11.021999999999998Q166.378 -12.319999999999999 168.59999999999997 -12.319999999999999Q170.09599999999998 -12.319999999999999 171.19599999999997 -11.736999999999998Q172.29599999999996 -11.154 172.90099999999995 -10.097999999999999Q173.50599999999997 -9.042 173.50599999999997 -7.6339999999999995V-5.4559999999999995H165.98199999999997V-4.465999999999999Q165.98199999999997 -3.19 166.68599999999998 -2.4859999999999998Q167.38999999999996 -1.7819999999999998 168.59999999999997 -1.7819999999999998Q169.58999999999997 -1.7819999999999998 170.24999999999997 -2.145Q170.90999999999997 -2.508 171.04199999999997 -3.146H173.39599999999996Q173.15399999999997 -1.6059999999999999 171.84499999999997 -0.693Q170.53599999999997 0.21999999999999997 168.59999999999997 0.21999999999999997ZM165.98199999999997 -7.6339999999999995V-7.127999999999999H171.21799999999996V-7.656Q171.21799999999996 -8.998 170.53599999999997 -9.724Q169.85399999999998 -10.45 168.59999999999997 -10.45Q167.34599999999998 -10.45 166.664 -9.713Q165.98199999999997 -8.975999999999999 165.98199999999997 -7.6339999999999995Z" fill="#8A94A0"/></g></svg>