<svg xmlns="http://www.w3.org/2000/svg" viewBox="0 0 1280 360" width="1280" height="360"><rect width="1280" height="360" fill="#0E1726"/><g opacity="0.06" fill="none" stroke="#F7FAF9" stroke-width="7.9" stroke-linecap="round" stroke-linejoin="round"><path d="M118 65 H58 V295 H118"/><path d="M1162 65 H1222 V295 H1162"/></g><g transform="translate(383.3,98.0) scale(1.0400)"><g fill="none" stroke="#F7FAF9" stroke-width="8.5" stroke-linecap="round" stroke-linejoin="round"><path d="M37 27 H25 V73 H37"/><path d="M63 27 H75 V73 H63"/></g><path d="M38 52 L46 60 L62 40" fill="none" stroke="#2DD4BF" stroke-width="10" stroke-linecap="round" stroke-linejoin="round"/></g><g transform="translate(517.3,168.6)"><path d="M19.096 0.62Q12.709999999999999 0.62 8.866 -2.914Q5.022 -6.448 5.022 -12.586V-21.514Q5.022 -27.652 8.866 -31.186Q12.709999999999999 -34.72 19.096 -34.72Q25.296 -34.72 29.016 -31.496Q32.736 -28.272 32.984 -22.692H26.35Q26.164 -25.605999999999998 24.211 -27.217999999999996Q22.258 -28.83 19.096 -28.83Q15.686 -28.83 13.702 -26.939Q11.718 -25.048 11.718 -21.576V-12.586Q11.718 -9.052 13.702 -7.161Q15.686 -5.27 19.096 -5.27Q22.32 -5.27 24.242 -6.882Q26.164 -8.494 26.35 -11.47H32.984Q32.736 -5.89 29.016 -2.635Q25.296 0.62 19.096 0.62Z M55.800000000000004 0.558Q49.476 0.558 45.725 -3.1Q41.974000000000004 -6.758 41.974000000000004 -13.082V-21.018Q41.974000000000004 -27.404 45.694 -31.031Q49.414 -34.658 55.800000000000004 -34.658Q62.18600000000001 -34.658 65.906 -31.031Q69.626 -27.404 69.626 -21.018V-13.082Q69.626 -6.758 65.875 -3.1Q62.124 0.558 55.800000000000004 0.558ZM55.800000000000004 -5.332Q59.148 -5.332 61.039 -7.223000000000001Q62.93000000000001 -9.114 62.93000000000001 -12.648V-21.451999999999998Q62.93000000000001 -24.986 61.039 -26.877000000000002Q59.148 -28.768 55.800000000000004 -28.768Q52.452000000000005 -28.768 50.56100000000001 -26.877000000000002Q48.67 -24.986 48.67 -21.451999999999998V-12.648Q48.67 -9.114 50.56100000000001 -7.223000000000001Q52.452000000000005 -5.332 55.800000000000004 -5.332Z M79.608 0.0V-34.1H86.242V-27.59Q86.738 -30.938 89.125 -32.829Q91.512 -34.72 95.35600000000001 -34.72Q100.44 -34.72 103.47800000000001 -31.465Q106.516 -28.21 106.516 -22.692V0.0H99.82000000000001V-21.7Q99.82000000000001 -25.233999999999998 98.022 -27.125Q96.224 -29.016 93.12400000000001 -29.016Q89.962 -29.016 88.13300000000001 -27.031999999999996Q86.304 -25.048 86.304 -21.514V0.0Z M124.49600000000001 0.0V-23.374H114.82400000000001V-29.45H124.49600000000001V-36.022Q124.49600000000001 -40.3 127.224 -42.78Q129.952 -45.26 134.66400000000002 -45.26H144.64600000000002V-39.308H134.788Q131.192 -39.308 131.192 -35.96V-29.45H144.64600000000002V-23.374H131.192V0.0Z M167.4 0.558Q161.07600000000002 0.558 157.32500000000002 -3.1Q153.574 -6.758 153.574 -13.082V-21.018Q153.574 -27.404 157.294 -31.031Q161.014 -34.658 167.4 -34.658Q173.786 -34.658 177.506 -31.031Q181.226 -27.404 181.226 -21.018V-13.082Q181.226 -6.758 177.47500000000002 -3.1Q173.72400000000002 0.558 167.4 0.558ZM167.4 -5.332Q170.74800000000002 -5.332 172.639 -7.223000000000001Q174.53 -9.114 174.53 -12.648V-21.451999999999998Q174.53 -24.986 172.639 -26.877000000000002Q170.74800000000002 -28.768 167.4 -28.768Q164.05200000000002 -28.768 162.161 -26.877000000000002Q160.27 -24.986 160.27 -21.451999999999998V-12.648Q160.27 -9.114 162.161 -7.223000000000001Q164.05200000000002 -5.332 167.4 -5.332Z M192.448 0.0V-34.1H199.082V-27.404Q199.578 -30.814 201.99599999999998 -32.766999999999996Q204.414 -34.72 208.382 -34.72Q213.652 -34.72 216.56599999999997 -31.433999999999997Q219.48 -28.148 219.48 -22.196V-19.158H212.784V-22.01Q212.784 -28.892 206.026 -28.892Q202.678 -28.892 200.911 -26.939Q199.144 -24.986 199.144 -21.266V0.0Z M226.486 0.0V-34.1H232.19V-29.326H232.314Q232.56199999999998 -31.744 234.11199999999997 -33.232Q235.66199999999998 -34.72 238.018 -34.72Q240.25 -34.72 241.831 -33.325Q243.41199999999998 -31.93 244.03199999999998 -29.573999999999998Q244.404 -31.93 245.954 -33.325Q247.504 -34.72 249.922 -34.72Q253.084 -34.72 255.099 -32.271Q257.114 -29.822 257.114 -25.978V0.0H251.03799999999998V-25.668Q251.03799999999998 -27.528 250.17 -28.613Q249.302 -29.698 247.75199999999998 -29.698Q246.202 -29.698 245.365 -28.644Q244.528 -27.59 244.528 -25.73V0.0H239.072V-25.668Q239.072 -27.528 238.235 -28.613Q237.398 -29.698 235.84799999999998 -29.698Q234.298 -29.698 233.43 -28.644Q232.56199999999998 -27.59 232.56199999999998 -25.73V0.0Z" fill="#F7FAF9"/><path d="M266.60 -17.15 L277.35 -6.41 L298.84 -33.27" fill="none" stroke="#2DD4BF" stroke-width="13.43" stroke-linecap="round" stroke-linejoin="round"/><path d="M323.64 0.62Q317.378 0.62 313.596 -3.038Q309.81399999999996 -6.696 309.81399999999996 -13.02V-21.08Q309.81399999999996 -27.404 313.596 -31.061999999999998Q317.378 -34.72 323.64 -34.72Q327.85599999999994 -34.72 330.95599999999996 -33.077Q334.056 -31.434 335.76099999999997 -28.458Q337.46599999999995 -25.482 337.46599999999995 -21.514V-15.376H316.26199999999994V-12.586Q316.26199999999994 -8.99 318.246 -7.006Q320.22999999999996 -5.022 323.64 -5.022Q326.42999999999995 -5.022 328.28999999999996 -6.045Q330.15 -7.068 330.52199999999993 -8.866H337.15599999999995Q336.474 -4.526 332.78499999999997 -1.9529999999999998Q329.09599999999995 0.62 323.64 0.62ZM316.26199999999994 -21.514V-20.088H331.018V-21.576Q331.018 -25.358 329.096 -27.404Q327.174 -29.45 323.64 -29.45Q320.10599999999994 -29.45 318.18399999999997 -27.372999999999998Q316.26199999999994 -25.296 316.26199999999994 -21.514Z M358.29799999999994 0.62Q353.21399999999994 0.62 350.17599999999993 -2.852Q347.138 -6.324 347.138 -12.214V-21.823999999999998Q347.138 -27.776 350.17599999999993 -31.247999999999998Q353.21399999999994 -34.72 358.29799999999994 -34.72Q361.95599999999996 -34.72 364.467 -32.86Q366.97799999999995 -31.0 367.722 -27.652L367.53599999999994 -35.525999999999996V-45.26H374.23199999999997V0.0H367.59799999999996V-6.448Q366.91599999999994 -3.1 364.467 -1.24Q362.018 0.62 358.29799999999994 0.62ZM360.65399999999994 -5.208Q363.87799999999993 -5.208 365.70699999999994 -7.1610000000000005Q367.53599999999994 -9.114 367.53599999999994 -12.709999999999999V-21.451999999999998Q367.53599999999994 -24.986 365.70699999999994 -26.939Q363.87799999999993 -28.892 360.65399999999994 -28.892Q357.42999999999995 -28.892 355.63199999999995 -27.186999999999998Q353.83399999999995 -25.482 353.83399999999995 -21.762V-12.4Q353.83399999999995 -8.618 355.63199999999995 -6.913Q357.42999999999995 -5.208 360.65399999999994 -5.208Z" fill="#F7FAF9"/></g><g transform="translate(307.0,248)"><path d="M1.29 0.0 6.87 -21.9H11.129999999999999L16.74 0.0H13.44L12.12 -5.55H5.91L4.59 0.0ZM6.51 -8.25H11.49L9.99 -14.549999999999999Q9.6 -16.23 9.344999999999999 -17.46Q9.09 -18.689999999999998 9.0 -19.169999999999998Q8.91 -18.689999999999998 8.67 -17.46Q8.43 -16.23 8.01 -14.58Z M29.549999999999997 0.0Q27.21 0.0 25.815 -1.365Q24.42 -2.73 24.42 -5.01V-18.96H18.87V-21.9H27.66V-5.069999999999999Q27.66 -4.08 28.200000000000003 -3.51Q28.740000000000002 -2.94 29.67 -2.94H34.65V0.0Z M47.55 0.0Q45.21 0.0 43.815 -1.365Q42.42 -2.73 42.42 -5.01V-18.96H36.87V-21.9H45.66V-5.069999999999999Q45.66 -4.08 46.2 -3.51Q46.74 -2.94 47.67 -2.94H52.65V0.0Z M77.13 5.3999999999999995 79.53 -0.96 73.35 -16.5H76.8L80.31 -7.199999999999999Q80.58 -6.54 80.82 -5.76Q81.06 -4.9799999999999995 81.15 -4.38Q81.27 -4.9799999999999995 81.495 -5.76Q81.72 -6.54 81.96 -7.199999999999999L85.23 -16.5H88.65L80.52 5.3999999999999995Z M99.0 0.27Q95.94 0.27 94.125 -1.5Q92.31 -3.27 92.31 -6.33V-10.17Q92.31 -13.26 94.11 -15.015Q95.91 -16.77 99.0 -16.77Q102.09 -16.77 103.89 -15.015Q105.69 -13.26 105.69 -10.17V-6.33Q105.69 -3.27 103.875 -1.5Q102.06 0.27 99.0 0.27ZM99.0 -2.58Q100.62 -2.58 101.535 -3.495Q102.45 -4.41 102.45 -6.12V-10.379999999999999Q102.45 -12.09 101.535 -13.004999999999999Q100.62 -13.92 99.0 -13.92Q97.38 -13.92 96.465 -13.004999999999999Q95.55 -12.09 95.55 -10.379999999999999V-6.12Q95.55 -4.41 96.465 -3.495Q97.38 -2.58 99.0 -2.58Z M116.97 0.3Q113.97 0.3 112.215 -1.425Q110.46 -3.15 110.46 -6.12V-16.5H113.7V-6.1499999999999995Q113.7 -4.47 114.57 -3.495Q115.44 -2.52 116.97 -2.52Q118.53 -2.52 119.41499999999999 -3.495Q120.3 -4.47 120.3 -6.1499999999999995V-16.5H123.53999999999999V-6.12Q123.53999999999999 -3.15 121.755 -1.425Q119.97 0.3 116.97 0.3Z M129.12 0.0V-16.5H132.33V-13.26Q132.57 -14.91 133.74 -15.855Q134.91 -16.8 136.83 -16.8Q139.38 -16.8 140.79 -15.21Q142.2 -13.62 142.2 -10.74V-9.27H138.96V-10.65Q138.96 -13.979999999999999 135.69 -13.979999999999999Q134.07 -13.979999999999999 133.215 -13.035Q132.36 -12.09 132.36 -10.29V0.0Z" fill="#F7FAF9"/><path d="M171.24 0.3Q168.15 0.3 166.29000000000002 -1.4100000000000001Q164.43 -3.12 164.43 -6.09V-10.41Q164.43 -13.379999999999999 166.29000000000002 -15.09Q168.15 -16.8 171.24 -16.8Q174.24 -16.8 176.04000000000002 -15.24Q177.84 -13.68 177.96 -10.98H174.75Q174.66 -12.389999999999999 173.715 -13.169999999999998Q172.77 -13.95 171.24 -13.95Q169.59 -13.95 168.63 -13.035Q167.67 -12.12 167.67 -10.44V-6.09Q167.67 -4.38 168.63 -3.465Q169.59 -2.55 171.24 -2.55Q172.8 -2.55 173.73000000000002 -3.3299999999999996Q174.66 -4.109999999999999 174.75 -5.55H177.96Q177.84 -2.85 176.04000000000002 -1.2750000000000001Q174.24 0.3 171.24 0.3Z M189.0 0.27Q185.94 0.27 184.125 -1.5Q182.31 -3.27 182.31 -6.33V-10.17Q182.31 -13.26 184.11 -15.015Q185.91 -16.77 189.0 -16.77Q192.09 -16.77 193.89 -15.015Q195.69 -13.26 195.69 -10.17V-6.33Q195.69 -3.27 193.875 -1.5Q192.06 0.27 189.0 0.27ZM189.0 -2.58Q190.62 -2.58 191.535 -3.495Q192.45 -4.41 192.45 -6.12V-10.379999999999999Q192.45 -12.09 191.535 -13.004999999999999Q190.62 -13.92 189.0 -13.92Q187.38 -13.92 186.465 -13.004999999999999Q185.55 -12.09 185.55 -10.379999999999999V-6.12Q185.55 -4.41 186.465 -3.495Q187.38 -2.58 189.0 -2.58Z M200.52 0.0V-16.5H203.73V-13.35Q203.97 -14.969999999999999 205.125 -15.885Q206.28 -16.8 208.14 -16.8Q210.6 -16.8 212.07 -15.225000000000001Q213.54 -13.65 213.54 -10.98V0.0H210.3V-10.5Q210.3 -12.209999999999999 209.43 -13.125Q208.56 -14.04 207.06 -14.04Q205.53 -14.04 204.64499999999998 -13.079999999999998Q203.76 -12.12 203.76 -10.41V0.0Z M222.24 0.0V-11.309999999999999H217.56V-14.25H222.24V-17.43Q222.24 -19.5 223.56 -20.7Q224.88 -21.9 227.16 -21.9H231.99V-19.02H227.22Q225.48 -19.02 225.48 -17.4V-14.25H231.99V-11.309999999999999H225.48V0.0Z M243.0 0.27Q239.94 0.27 238.125 -1.5Q236.31 -3.27 236.31 -6.33V-10.17Q236.31 -13.26 238.11 -15.015Q239.91 -16.77 243.0 -16.77Q246.09 -16.77 247.89 -15.015Q249.69 -13.26 249.69 -10.17V-6.33Q249.69 -3.27 247.875 -1.5Q246.06 0.27 243.0 0.27ZM243.0 -2.58Q244.62 -2.58 245.535 -3.495Q246.45 -4.41 246.45 -6.12V-10.379999999999999Q246.45 -12.09 245.535 -13.004999999999999Q244.62 -13.92 243.0 -13.92Q241.38 -13.92 240.465 -13.004999999999999Q239.55 -12.09 239.55 -10.379999999999999V-6.12Q239.55 -4.41 240.465 -3.495Q241.38 -2.58 243.0 -2.58Z M255.12 0.0V-16.5H258.33V-13.26Q258.57 -14.91 259.74 -15.855Q260.91 -16.8 262.83 -16.8Q265.38 -16.8 266.78999999999996 -15.21Q268.2 -13.62 268.2 -10.74V-9.27H264.96V-10.65Q264.96 -13.979999999999999 261.69 -13.979999999999999Q260.07 -13.979999999999999 259.21500000000003 -13.035Q258.36 -12.09 258.36 -10.29V0.0Z M271.59 0.0V-16.5H274.35V-14.19H274.41Q274.53 -15.36 275.28 -16.08Q276.03 -16.8 277.17 -16.8Q278.25 -16.8 279.015 -16.125Q279.78 -15.45 280.08 -14.309999999999999Q280.26 -15.45 281.01 -16.125Q281.76 -16.8 282.93 -16.8Q284.46 -16.8 285.435 -15.615Q286.41 -14.43 286.41 -12.57V0.0H283.47V-12.42Q283.47 -13.32 283.05 -13.844999999999999Q282.63 -14.37 281.88 -14.37Q281.13 -14.37 280.725 -13.86Q280.32 -13.35 280.32 -12.45V0.0H277.68V-12.42Q277.68 -13.32 277.275 -13.844999999999999Q276.87 -14.37 276.12 -14.37Q275.37 -14.37 274.95 -13.86Q274.53 -13.35 274.53 -12.45V0.0Z M295.35 0.3Q292.83 0.3 291.345 -1.125Q289.86 -2.55 289.86 -4.859999999999999Q289.86 -7.199999999999999 291.45000000000005 -8.625Q293.04 -10.049999999999999 295.68 -10.049999999999999H300.24V-11.25Q300.24 -14.1 297.03 -14.1Q295.59 -14.1 294.72 -13.559999999999999Q293.85 -13.02 293.79 -12.059999999999999H290.61Q290.76 -14.129999999999999 292.47 -15.465Q294.18 -16.8 297.06 -16.8Q300.12 -16.8 301.8 -15.344999999999999Q303.48 -13.889999999999999 303.48 -11.28V0.0H300.3V-3.09H300.27Q300.06 -1.5 298.77 -0.6Q297.48 0.3 295.35 0.3ZM296.28 -2.37Q298.11 -2.37 299.175 -3.255Q300.24 -4.14 300.24 -5.64V-7.77H295.92Q294.63 -7.77 293.865 -7.02Q293.1 -6.27 293.1 -5.1Q293.1 -3.84 293.94 -3.105Q294.78 -2.37 296.28 -2.37Z M308.52 0.0V-16.5H311.73V-13.35Q311.97 -14.969999999999999 313.125 -15.885Q314.28 -16.8 316.14 -16.8Q318.6 -16.8 320.07000000000005 -15.225000000000001Q321.54 -13.65 321.54 -10.98V0.0H318.3V-10.5Q318.3 -12.209999999999999 317.43 -13.125Q316.56 -14.04 315.06 -14.04Q313.53 -14.04 312.645 -13.079999999999998Q311.76 -12.12 311.76 -10.41V0.0Z M333.24 0.3Q330.15 0.3 328.28999999999996 -1.4100000000000001Q326.43 -3.12 326.43 -6.09V-10.41Q326.43 -13.379999999999999 328.28999999999996 -15.09Q330.15 -16.8 333.24 -16.8Q336.24 -16.8 338.03999999999996 -15.24Q339.84 -13.68 339.96 -10.98H336.75Q336.66 -12.389999999999999 335.71500000000003 -13.169999999999998Q334.77 -13.95 333.24 -13.95Q331.59 -13.95 330.63 -13.035Q329.67 -12.12 329.67 -10.44V-6.09Q329.67 -4.38 330.63 -3.465Q331.59 -2.55 333.24 -2.55Q334.8 -2.55 335.73 -3.3299999999999996Q336.66 -4.109999999999999 336.75 -5.55H339.96Q339.84 -2.85 338.03999999999996 -1.2750000000000001Q336.24 0.3 333.24 0.3Z M351.0 0.3Q347.97 0.3 346.14 -1.47Q344.31 -3.2399999999999998 344.31 -6.3V-10.2Q344.31 -13.26 346.14 -15.030000000000001Q347.97 -16.8 351.0 -16.8Q353.04 -16.8 354.54 -16.005Q356.04 -15.209999999999999 356.865 -13.77Q357.69 -12.33 357.69 -10.41V-7.4399999999999995H347.43V-6.09Q347.43 -4.35 348.39 -3.3899999999999997Q349.35 -2.4299999999999997 351.0 -2.4299999999999997Q352.35 -2.4299999999999997 353.25 -2.925Q354.15 -3.42 354.33 -4.29H357.54Q357.21 -2.19 355.42499999999995 -0.945Q353.64 0.3 351.0 0.3ZM347.43 -10.41V-9.719999999999999H354.57V-10.44Q354.57 -12.27 353.64 -13.26Q352.71 -14.25 351.0 -14.25Q349.29 -14.25 348.36 -13.245000000000001Q347.43 -12.24 347.43 -10.41Z" fill="#2DD4BF"/><path d="M385.35 0.3Q382.83 0.3 381.345 -1.125Q379.86 -2.55 379.86 -4.859999999999999Q379.86 -7.199999999999999 381.45000000000005 -8.625Q383.04 -10.049999999999999 385.68 -10.049999999999999H390.24V-11.25Q390.24 -14.1 387.03 -14.1Q385.59 -14.1 384.72 -13.559999999999999Q383.85 -13.02 383.79 -12.059999999999999H380.61Q380.76 -14.129999999999999 382.47 -15.465Q384.18 -16.8 387.06 -16.8Q390.12 -16.8 391.8 -15.344999999999999Q393.48 -13.889999999999999 393.48 -11.28V0.0H390.3V-3.09H390.27Q390.06 -1.5 388.77 -0.6Q387.48 0.3 385.35 0.3ZM386.28 -2.37Q388.11 -2.37 389.175 -3.255Q390.24 -4.14 390.24 -5.64V-7.77H385.92Q384.63 -7.77 383.865 -7.02Q383.1 -6.27 383.1 -5.1Q383.1 -3.84 383.94 -3.105Q384.78 -2.37 386.28 -2.37Z M399.12 0.0V-16.5H402.33V-13.26Q402.57 -14.91 403.74 -15.855Q404.91 -16.8 406.83 -16.8Q409.38 -16.8 410.78999999999996 -15.21Q412.2 -13.62 412.2 -10.74V-9.27H408.96V-10.65Q408.96 -13.979999999999999 405.69 -13.979999999999999Q404.07 -13.979999999999999 403.21500000000003 -13.035Q402.36 -12.09 402.36 -10.29V0.0Z M423.0 0.3Q419.97 0.3 418.14 -1.47Q416.31 -3.2399999999999998 416.31 -6.3V-10.2Q416.31 -13.26 418.14 -15.030000000000001Q419.97 -16.8 423.0 -16.8Q425.04 -16.8 426.54 -16.005Q428.04 -15.209999999999999 428.865 -13.77Q429.69 -12.33 429.69 -10.41V-7.4399999999999995H419.43V-6.09Q419.43 -4.35 420.39 -3.3899999999999997Q421.35 -2.4299999999999997 423.0 -2.4299999999999997Q424.35 -2.4299999999999997 425.25 -2.925Q426.15 -3.42 426.33 -4.29H429.54Q429.21 -2.19 427.42499999999995 -0.945Q425.64 0.3 423.0 0.3ZM419.43 -10.41V-9.719999999999999H426.57V-10.44Q426.57 -12.27 425.64 -13.26Q424.71 -14.25 423.0 -14.25Q421.29 -14.25 420.36 -13.245000000000001Q419.43 -12.24 419.43 -10.41Z M460.23 0.3Q458.43 0.3 457.245 -0.6Q456.06 -1.5 455.73 -3.12V0.0H452.52V-21.9H455.76V-17.189999999999998L455.67 -13.379999999999999Q456.03 -14.969999999999999 457.245 -15.885Q458.46 -16.8 460.23 -16.8Q462.69 -16.8 464.15999999999997 -15.120000000000001Q465.63 -13.44 465.63 -10.559999999999999V-5.91Q465.63 -3.06 464.15999999999997 -1.3800000000000001Q462.69 0.3 460.23 0.3ZM459.09 -2.52Q460.65 -2.52 461.52 -3.3449999999999998Q462.39 -4.17 462.39 -6.0V-10.53Q462.39 -12.33 461.52 -13.155Q460.65 -13.979999999999999 459.09 -13.979999999999999Q457.53 -13.979999999999999 456.645 -13.035Q455.76 -12.09 455.76 -10.379999999999999V-6.1499999999999995Q455.76 -4.41 456.645 -3.465Q457.53 -2.52 459.09 -2.52Z M477.0 0.3Q473.97 0.3 472.14 -1.47Q470.31 -3.2399999999999998 470.31 -6.3V-10.2Q470.31 -13.26 472.14 -15.030000000000001Q473.97 -16.8 477.0 -16.8Q479.04 -16.8 480.54 -16.005Q482.04 -15.209999999999999 482.865 -13.77Q483.69 -12.33 483.69 -10.41V-7.4399999999999995H473.43V-6.09Q473.43 -4.35 474.39 -3.3899999999999997Q475.35 -2.4299999999999997 477.0 -2.4299999999999997Q478.35 -2.4299999999999997 479.25 -2.925Q480.15 -3.42 480.33 -4.29H483.54Q483.21 -2.19 481.42499999999995 -0.945Q479.64 0.3 477.0 0.3ZM473.43 -10.41V-9.719999999999999H480.57V-10.44Q480.57 -12.27 479.64 -13.26Q478.71 -14.25 477.0 -14.25Q475.29 -14.25 474.36 -13.245000000000001Q473.43 -12.24 473.43 -10.41Z M497.55 0.0Q495.21 0.0 493.815 -1.365Q492.42 -2.73 492.42 -5.01V-18.96H486.87V-21.9H495.66V-5.069999999999999Q495.66 -4.08 496.20000000000005 -3.51Q496.74 -2.94 497.67 -2.94H502.65V0.0Z M513.0 0.27Q509.94 0.27 508.125 -1.5Q506.31 -3.27 506.31 -6.33V-10.17Q506.31 -13.26 508.11 -15.015Q509.91 -16.77 513.0 -16.77Q516.09 -16.77 517.8900000000001 -15.015Q519.69 -13.26 519.69 -10.17V-6.33Q519.69 -3.27 517.875 -1.5Q516.06 0.27 513.0 0.27ZM513.0 -2.58Q514.62 -2.58 515.5350000000001 -3.495Q516.45 -4.41 516.45 -6.12V-10.379999999999999Q516.45 -12.09 515.5350000000001 -13.004999999999999Q514.62 -13.92 513.0 -13.92Q511.38 -13.92 510.46500000000003 -13.004999999999999Q509.55 -12.09 509.55 -10.379999999999999V-6.12Q509.55 -4.41 510.46500000000003 -3.495Q511.38 -2.58 513.0 -2.58Z M524.52 0.0V-16.5H527.73V-13.35Q527.97 -14.969999999999999 529.125 -15.885Q530.28 -16.8 532.14 -16.8Q534.6 -16.8 536.0699999999999 -15.225000000000001Q537.54 -13.65 537.54 -10.98V0.0H534.3V-10.5Q534.3 -12.209999999999999 533.43 -13.125Q532.56 -14.04 531.06 -14.04Q529.53 -14.04 528.645 -13.079999999999998Q527.76 -12.12 527.76 -10.41V0.0Z M544.68 5.3999999999999995V2.61H549.33Q550.68 2.61 551.46 1.8599999999999999Q552.24 1.1099999999999999 552.24 -0.18V-1.41L552.3 -4.17Q551.91 -2.6999999999999997 550.755 -1.89Q549.6 -1.08 547.89 -1.08Q545.34 -1.08 543.87 -2.73Q542.4 -4.38 542.4 -7.26V-10.59Q542.4 -13.44 543.87 -15.120000000000001Q545.34 -16.8 547.89 -16.8Q549.6 -16.8 550.74 -15.99Q551.88 -15.18 552.27 -13.709999999999999V-16.5H555.45V-0.12Q555.45 2.4299999999999997 553.815 3.9149999999999996Q552.18 5.3999999999999995 549.36 5.3999999999999995ZM548.94 -3.81Q550.47 -3.81 551.355 -4.755Q552.24 -5.7 552.24 -7.41V-10.41Q552.24 -12.09 551.355 -13.035Q550.47 -13.979999999999999 548.94 -13.979999999999999Q547.35 -13.979999999999999 546.495 -13.079999999999998Q545.64 -12.18 545.64 -10.62V-7.199999999999999Q545.64 -5.609999999999999 546.495 -4.71Q547.35 -3.81 548.94 -3.81Z M586.65 0.0Q584.46 0.0 583.1700000000001 -1.26Q581.88 -2.52 581.88 -4.68V-13.559999999999999H577.23V-16.5H581.88V-21.15H585.12V-16.5H591.78V-13.559999999999999H585.12V-4.71Q585.12 -3.9299999999999997 585.5699999999999 -3.4349999999999996Q586.02 -2.94 586.8 -2.94H591.63V0.0Z M603.0 0.27Q599.94 0.27 598.125 -1.5Q596.31 -3.27 596.31 -6.33V-10.17Q596.31 -13.26 598.1099999999999 -15.015Q599.91 -16.77 603.0 -16.77Q606.09 -16.77 607.8900000000001 -15.015Q609.69 -13.26 609.69 -10.17V-6.33Q609.69 -3.27 607.875 -1.5Q606.06 0.27 603.0 0.27ZM603.0 -2.58Q604.62 -2.58 605.5350000000001 -3.495Q606.45 -4.41 606.45 -6.12V-10.379999999999999Q606.45 -12.09 605.5350000000001 -13.004999999999999Q604.62 -13.92 603.0 -13.92Q601.38 -13.92 600.4649999999999 -13.004999999999999Q599.55 -12.09 599.55 -10.379999999999999V-6.12Q599.55 -4.41 600.4649999999999 -3.495Q601.38 -2.58 603.0 -2.58Z M638.97 0.3Q635.97 0.3 634.215 -1.425Q632.46 -3.15 632.46 -6.12V-16.5H635.7V-6.1499999999999995Q635.7 -4.47 636.57 -3.495Q637.44 -2.52 638.97 -2.52Q640.53 -2.52 641.415 -3.495Q642.3 -4.47 642.3 -6.1499999999999995V-16.5H645.54V-6.12Q645.54 -3.15 643.755 -1.425Q641.97 0.3 638.97 0.3Z M656.34 0.27Q653.49 0.27 651.87 -1.02Q650.25 -2.31 650.25 -4.62H653.46Q653.46 -3.57 654.21 -2.985Q654.96 -2.4 656.34 -2.4H657.66Q659.07 -2.4 659.85 -2.985Q660.63 -3.57 660.63 -4.6499999999999995Q660.63 -6.54 658.62 -6.81L654.27 -7.41Q652.44 -7.6499999999999995 651.435 -8.865Q650.43 -10.08 650.43 -12.03Q650.43 -14.28 651.96 -15.524999999999999Q653.49 -16.77 656.28 -16.77H657.63Q660.21 -16.77 661.815 -15.54Q663.42 -14.309999999999999 663.51 -12.299999999999999H660.27Q660.21 -13.11 659.505 -13.635Q658.8 -14.16 657.63 -14.16H656.28Q654.99 -14.16 654.2850000000001 -13.59Q653.58 -13.02 653.58 -12.059999999999999Q653.58 -10.53 655.29 -10.29L659.37 -9.75Q663.78 -9.15 663.78 -4.68Q663.78 -2.31 662.19 -1.02Q660.6 0.27 657.66 0.27Z" fill="#F7FAF9"/></g><rect x="307.0" y="266" width="666" height="3" rx="1.5" fill="#2DD4BF"/><g transform="translate(550.9,302)"><path d="M6.6 0.19799999999999998Q4.356 0.19799999999999998 3.025 -1.0999999999999999Q1.694 -2.3979999999999997 1.694 -4.6419999999999995V-7.457999999999999Q1.694 -9.724 3.014 -11.011Q4.334 -12.298 6.6 -12.298Q8.866 -12.298 10.186 -11.011Q11.505999999999998 -9.724 11.505999999999998 -7.457999999999999V-4.6419999999999995Q11.505999999999998 -2.3979999999999997 10.174999999999999 -1.0999999999999999Q8.844 0.19799999999999998 6.6 0.19799999999999998ZM6.6 -1.892Q7.787999999999999 -1.892 8.459 -2.5629999999999997Q9.129999999999999 -3.234 9.129999999999999 -4.4879999999999995V-7.611999999999999Q9.129999999999999 -8.866 8.459 -9.536999999999999Q7.787999999999999 -10.208 6.6 -10.208Q5.412 -10.208 4.741 -9.536999999999999Q4.069999999999999 -8.866 4.069999999999999 -7.611999999999999V-4.4879999999999995Q4.069999999999999 -3.234 4.741 -2.5629999999999997Q5.412 -1.892 6.6 -1.892Z M18.048 3.96V-12.1H20.402V-9.812Q20.644 -11.0 21.512999999999998 -11.66Q22.381999999999998 -12.319999999999999 23.701999999999998 -12.319999999999999Q25.506 -12.319999999999999 26.584 -11.076999999999998Q27.662 -9.834 27.662 -7.765999999999999V-4.356Q27.662 -2.266 26.584 -1.0230000000000001Q25.506 0.21999999999999997 23.701999999999998 0.21999999999999997Q22.381999999999998 0.21999999999999997 21.502 -0.473Q20.622 -1.166 20.38 -2.376H20.357999999999997L20.424 0.506V3.96ZM22.866 -1.8479999999999999Q24.009999999999998 -1.8479999999999999 24.648 -2.453Q25.286 -3.058 25.286 -4.3999999999999995V-7.7219999999999995Q25.286 -9.042 24.648 -9.646999999999998Q24.009999999999998 -10.251999999999999 22.866 -10.251999999999999Q21.721999999999998 -10.251999999999999 21.073 -9.559Q20.424 -8.866 20.424 -7.611999999999999V-4.51Q20.424 -3.234 21.073 -2.541Q21.721999999999998 -1.8479999999999999 22.866 -1.8479999999999999Z M39.0 0.21999999999999997Q36.778 0.21999999999999997 35.436 -1.0779999999999998Q34.094 -2.376 34.094 -4.62V-7.4799999999999995Q34.094 -9.724 35.436 -11.021999999999998Q36.778 -12.319999999999999 39.0 -12.319999999999999Q40.495999999999995 -12.319999999999999 41.596 -11.736999999999998Q42.696 -11.154 43.301 -10.097999999999999Q43.906 -9.042 43.906 -7.6339999999999995V-5.4559999999999995H36.382V-4.465999999999999Q36.382 -3.19 37.086 -2.4859999999999998Q37.79 -1.7819999999999998 39.0 -1.7819999999999998Q39.989999999999995 -1.7819999999999998 40.65 -2.145Q41.31 -2.508 41.442 -3.146H43.796Q43.554 -1.6059999999999999 42.245000000000005 -0.693Q40.936 0.21999999999999997 39.0 0.21999999999999997ZM36.382 -7.6339999999999995V-7.127999999999999H41.617999999999995V-7.656Q41.617999999999995 -8.998 40.93599999999999 -9.724Q40.254 -10.45 39.0 -10.45Q37.745999999999995 -10.45 37.06399999999999 -9.713Q36.382 -8.975999999999999 36.382 -7.6339999999999995Z M50.44799999999999 0.0V-12.1H52.80199999999999V-9.79Q52.977999999999994 -10.978 53.824999999999996 -11.649Q54.672 -12.319999999999999 56.035999999999994 -12.319999999999999Q57.839999999999996 -12.319999999999999 58.91799999999999 -11.165Q59.995999999999995 -10.01 59.995999999999995 -8.052V0.0H57.61999999999999V-7.699999999999999Q57.61999999999999 -8.953999999999999 56.98199999999999 -9.625Q56.343999999999994 -10.296 55.24399999999999 -10.296Q54.12199999999999 -10.296 53.473 -9.591999999999999Q52.824 -8.888 52.824 -7.6339999999999995V0.0Z M87.116 0.19799999999999998Q85.026 0.19799999999999998 83.838 -0.748Q82.65 -1.694 82.65 -3.388H85.004Q85.004 -2.618 85.554 -2.189Q86.104 -1.7599999999999998 87.116 -1.7599999999999998H88.084Q89.118 -1.7599999999999998 89.69 -2.189Q90.262 -2.618 90.262 -3.4099999999999997Q90.262 -4.795999999999999 88.788 -4.994L85.598 -5.433999999999999Q84.256 -5.609999999999999 83.519 -6.5009999999999994Q82.782 -7.3919999999999995 82.782 -8.822Q82.782 -10.472 83.904 -11.385Q85.026 -12.298 87.072 -12.298H88.062Q89.954 -12.298 91.131 -11.396Q92.30799999999999 -10.494 92.374 -9.02H89.998Q89.954 -9.613999999999999 89.437 -9.998999999999999Q88.92 -10.383999999999999 88.062 -10.383999999999999H87.072Q86.126 -10.383999999999999 85.60900000000001 -9.966Q85.092 -9.548 85.092 -8.844Q85.092 -7.7219999999999995 86.346 -7.545999999999999L89.338 -7.1499999999999995Q92.572 -6.71 92.572 -3.432Q92.572 -1.694 91.406 -0.748Q90.24 0.19799999999999998 88.084 0.19799999999999998Z M103.8 0.19799999999999998Q101.556 0.19799999999999998 100.225 -1.0999999999999999Q98.894 -2.3979999999999997 98.894 -4.6419999999999995V-7.457999999999999Q98.894 -9.724 100.214 -11.011Q101.534 -12.298 103.8 -12.298Q106.066 -12.298 107.386 -11.011Q108.706 -9.724 108.706 -7.457999999999999V-4.6419999999999995Q108.706 -2.3979999999999997 107.375 -1.0999999999999999Q106.044 0.19799999999999998 103.8 0.19799999999999998ZM103.8 -1.892Q104.988 -1.892 105.65899999999999 -2.5629999999999997Q106.33 -3.234 106.33 -4.4879999999999995V-7.611999999999999Q106.33 -8.866 105.65899999999999 -9.536999999999999Q104.988 -10.208 103.8 -10.208Q102.61200000000001 -10.208 101.941 -9.536999999999999Q101.27 -8.866 101.27 -7.611999999999999V-4.4879999999999995Q101.27 -3.234 101.941 -2.5629999999999997Q102.61200000000001 -1.892 103.8 -1.892Z M119.97800000000001 0.21999999999999997Q117.778 0.21999999999999997 116.49100000000001 -1.045Q115.20400000000001 -2.31 115.20400000000001 -4.4879999999999995V-12.1H117.58000000000001V-4.51Q117.58000000000001 -3.278 118.21800000000002 -2.5629999999999997Q118.85600000000001 -1.8479999999999999 119.97800000000001 -1.8479999999999999Q121.122 -1.8479999999999999 121.771 -2.5629999999999997Q122.42 -3.278 122.42 -4.51V-12.1H124.796V-4.4879999999999995Q124.796 -2.31 123.487 -1.045Q122.178 0.21999999999999997 119.97800000000001 0.21999999999999997Z M131.888 0.0V-12.1H134.242V-9.724Q134.418 -10.934 135.276 -11.626999999999999Q136.134 -12.319999999999999 137.542 -12.319999999999999Q139.412 -12.319999999999999 140.446 -11.154Q141.48 -9.988 141.48 -7.8759999999999994V-6.798H139.10399999999998V-7.81Q139.10399999999998 -10.251999999999999 136.706 -10.251999999999999Q135.518 -10.251999999999999 134.891 -9.559Q134.26399999999998 -8.866 134.26399999999998 -7.545999999999999V0.0Z M152.576 0.21999999999999997Q150.30999999999997 0.21999999999999997 148.94599999999997 -1.0339999999999998Q147.582 -2.288 147.582 -4.465999999999999V-7.6339999999999995Q147.582 -9.812 148.94599999999997 -11.065999999999999Q150.30999999999997 -12.319999999999999 152.576 -12.319999999999999Q154.77599999999998 -12.319999999999999 156.096 -11.175999999999998Q157.416 -10.032 157.504 -8.052H155.14999999999998Q155.08399999999997 -9.086 154.39099999999996 -9.658Q153.69799999999998 -10.229999999999999 152.576 -10.229999999999999Q151.36599999999999 -10.229999999999999 150.66199999999998 -9.559Q149.95799999999997 -8.888 149.95799999999997 -7.656V-4.465999999999999Q149.95799999999997 -3.2119999999999997 150.66199999999998 -2.541Q151.36599999999999 -1.8699999999999999 152.576 -1.8699999999999999Q153.71999999999997 -1.8699999999999999 154.402 -2.4419999999999997Q155.08399999999997 -3.014 155.14999999999998 -4.069999999999999H157.504Q157.416 -2.09 156.096 -0.9349999999999999Q154.77599999999998 0.21999999999999997 152.576 0.21999999999999997Z M168.59999999999997 0.21999999999999997Q166.378 0.21999999999999997 165.03599999999997 -1.0779999999999998Q163.69399999999996 -2.376 163.69399999999996 -4.62V-7.4799999999999995Q163.69399999999996 -9.724 165.03599999999997 -11.021999999999998Q166.378 -12.319999999999999 168.59999999999997 -12.319999999999999Q170.09599999999998 -12.319999999999999 171.19599999999997 -11.736999999999998Q172.29599999999996 -11.154 172.90099999999995 -10.097999999999999Q173.50599999999997 -9.042 173.50599999999997 -7.6339999999999995V-5.4559999999999995H165.98199999999997V-4.465999999999999Q165.98199999999997 -3.19 166.68599999999998 -2.4859999999999998Q167.38999999999996 -1.7819999999999998 168.59999999999997 -1.7819999999999998Q169.58999999999997 -1.7819999999999998 170.24999999999997 -2.145Q170.90999999999997 -2.508 171.04199999999997 -3.146H173.39599999999996Q173.15399999999997 -1.6059999999999999 171.84499999999997 -0.693Q170.53599999999997 0.21999999999999997 168.59999999999997 0.21999999999999997ZM165.98199999999997 -7.6339999999999995V-7.127999999999999H171.21799999999996V-7.656Q171.21799999999996 -8.998 170.53599999999997 -9.724Q169.85399999999998 -10.45 168.59999999999997 -10.45Q167.34599999999998 -10.45 166.664 -9.713Q165.98199999999997 -8.975999999999999 165.98199999999997 -7.6339999999999995Z" fill="#8A94A0"/></g></svg>